<svg xmlns:xlink="http://www.w3.org/1999/xlink" height="605.5" width="550.85" xmlns="http://www.w3.org/2000/svg"><g transform="translate(275.4 302.75)"><use height="601.6" transform="translate(-275.4 -301.25)" width="550.2" xlink:href="#a"/><use height="605.5" transform="translate(-165.2 -302.75)" width="440.65" xlink:href="#b"/></g><defs><use height="601.6" width="550.2" xlink:href="#c" id="a"/><use height="605.5" width="440.65" xlink:href="#d" id="b"/><g id="c" fill-rule="evenodd"><path d="M81.25 78.4q8.95 1.2 21.3 3.5l20.75 3.9q-15.15 2.4-40.05 8.35-1.2-6.2-2.45-15.8l.45.05" fill="#998f8f" transform="translate(275.1 300.8)"/><path d="m162.85 88.4-.5 4.35q-2.2 15.5-7.7 25-3.3 5.75-8.45 9.65-4.25 3.25-11.8 6.55-17.9 7.85-38.8 15.85l-7.2 2.4q-4.35 1.45-5.95 2.7-1.95 1.55-5.15 8.15L73 172.4q-11.15 22.55-22.95 44.55l-2.6 4.15-2.45 3.95q-.8 1.7-2.2 7.35-1.2 4.75-2.85 6.8L18.7 219.3l-3.2-2.8q-.05-.6 1.9-2.6l2.35-2.2q3.05-2.95 5.15-4.25 2.6 2.8 7.15 8.75 4.2 5.15 8.2 7.7-.6-2.15-2.65-4.5l-3.75-4.15q-5.05-6.4-7.9-8.85.7-1.85 1.45-5.85l1.3-6.05q2.75-1.2 13.55-1.35 8.8-.15 11.8-4.05l-7.55 1.85-9.85.4Q43.3 170.9 50.9 145.1l2-8.25q1.15-5 2.35-7.5 1.4-2.9 5.8-6.6 4.75-4 6.05-6l.45-1.05q4.95 2.15 7.85 2.2 2.75.05 7.9-2.1l8.2-3.5q2.65-.95 25.45-8.95l24.75-8.85q.95-.7 1.3-1.4l.75-1.95-.35-1.7q-.25-1-.05-1.85l9.45.7q6.6.7 10.05.1" fill="#3a342e" transform="translate(275.1 300.8)"/><path d="m-164.25 192.15-.15-.15.35-.35-.2.5M-63.8 43.9l.2.6-.95-.5.75-.1" fill="#98c6f6" transform="translate(275.1 300.8)"/><path d="M176.9 73.65q-.65-4.4-.45-6.5l.6-.25q17.8-7.25 33-6.15 35.8 2.55 48.25 56.1-5.1-1.9-15.8-1.45-4-14.1-16.9-22.65-13.65-9.05-31-7.35l-1.75-.15q-1.05.05-1.45 1.25l4.75.5 5.35-.2q15.65.8 26.2 8.7 10.2 7.6 14.4 20.95 15.3-1.55 23.4 7.65 7.35 8.3 8.1 24.45.4 10.3-1.4 16.8-.9 3.2-4.25 7.6-2.7 3.55-5.9 6.55-7.8 7.55-17.2 7.1-1.95 13.95-5.45 23.85-4.1 11.45-10.75 19-9.55 10.95-25.85 15.4-16.55 4.55-36.9 1.45l-5.65-1.2q-3.8-.85-5.15-.5-1.4.4-3.3 4.45l-2.75 6.05q-5.75 9.85-13 14.75-9.35 6.4-22.1 5.45-5-.35-10.6-2.25-4.2-1.45-9.65-4.15l-2.85-1.65q-2.15-1.15-3.2-1.05-1.65.2-6.25 5.15l-5.9 6.35q-6.75 5.85-13.5 10.1-10.25 6.6-18.75 9.55-12.1 4.2-25.1 3.25-18.6-1.3-34.35-15.45-10.75-9.65-22.35-28.05l-2.65-4.35q-1.65-2.5-3.4-3.75-.75 1.1.4 2.85 1.15 1.8.95 2.2-7.9-2.05-12.5-6.4-5.05-4.75-6.4-12.5-1.15-.15-1.3 1.3-.15 1.85-.4 2.1-9.85 7.6-24.6 8.45-31.15 1.75-49.55-15.1-19.4-17.8-14.6-48.15-1.75 1.75-2.05 7.05l-.6 7.95q-5.45-2.5-9-6.6l.2-.5 2.1-2.1q-1.35 0-1.9 1.5-.55.15-.8.65l-.45-.55q6.1-7.8 7.35-16.2 3.75.1 7.45-2.15 3.45-2.1 5.95-5.6l1.25-2q3-5.35 1.75-9.7-1.4-4.9-7.85-6 .95-11.5-4.7-17.45-5.9-6.25-16.5-3.25v-1.7q.55-2.95.7-9.6.15-5.8 1.1-9l.15-.5q1.3-3.95 6.65-8.95 5.15-4.9 9.45-6.55 6.4-2.5 14.8-1.15 7.6 1.25 13.55 4.9-1.65 6.7-1.25 14.1.4 7.95 3.05 12.15-6.4-2.65-13.05-1.65-7.35 1.1-9 6.2 1.25.2 2.6-1 1.7-1.6 2.75-1.95 3.75-1.2 9.5-.8l9.5 1.3q.4-1.8-.45-2.65l-1.55-1.8q-4.15-9.7-1-22 2.85-11 9.35-17.6 9.2-9.3 26.8-16.55 6.05-16.65 21.25-19.8l.95-.2.95.5 1.4 6.3q.7 4 1.55 5.75l2.4 3.55q1.55 2.2 1.6 3.9l-.75 1.2q-2.4 3.65-3.2 5.8-1.35 3.45-.75 6.95.55 3.15 4.85 7.2l7.1 6.15 7 6.3q3.9 3.45 5.8 5.65-8.2 1.85-13.3 6.6-5.65 5.35-5.35 12.75 1.35-.25 1.55-1.95.3-2.6.55-3.1 2.6-4.85 9.25-9.35l4.15-2.7q2.75-1.6 3.95-1.55.55.05 4.5 3.25 4 3.3 4.3 4.15.25.6.3 2.1l.3 1.75q1.05 2.65 4.7 2.55 6.1-.25 6.9-.05 1.65.35 3.55 2.7 1.95 2.35 3.1 2.65 3.4 9.1 14.45 15 6.4 3.4 20.55 9-2.3 19.5-5.7 39.15-3.35 1.7-5.45 6.4v.05q-1 2.25-1.9 5.75l-1.45 6.1-5.5 3.85-5.5 3.85q-3.95 1.1-9.7.25l-9.9-2.05q-5.8-1.15-9.1-.75-4.5.55-7.15 3.95.05 7.5 3.75 13.2 2.8 4.4 9.4 9.7 4.8 3.95 9.6 6.7 5.85 3.3 10 3.8h3.7q2.85.45 7.65 2.15l7.85 2.9 7.75 3.2q5.55 2.1 7.8 1.5 2-.5 4.45-5.95 2.4-6.05 3.3-7.55l3.85-7.15q1.85-4.3 2.3-8.65l2.7-1.75q5.35-3.3 9.4-4.7 5.7-1.9 11.35-1.2-4.2-1.95-10.6 0-5 1.55-9.7 4.8l-1.05.75q6.75-12.6 17.55-34.1l17.55-34.9q17.65-6.25 36.15-14.05 6.2-2.65 15.45-7.5 8.75-4.6 9.65-5.5l3-.55.75-1.3q4.35-4.3 7.55-9.75 3.55-6.1 4.95-12.6l.55-.3 6.45-4.05q4.05-2.6 6.65-3.85.7-.35 2.75-.55 1.6-.15 2.5-1.1-2.45-1.4-5.5-.5-1.55.5-5.05 2.45-1.45.8-3.9 3l-3.65 3.05-.65.35q.95-2.4 1.15-5.65.1-3.45.3-5.1l.45-2.1q1.1-3.4 6.95-6.15 5.75-2.7 6.4-5.3.5-1.8-.1-5.65" fill="#98c6f6" transform="translate(275.1 300.8)"/><path d="M-67.25 43.4h.1l1.55.75q.85.4.9.95-8.45 1.4-14 6.8-4.85 4.75-7.8 13-8.1 3.3-13.95 6.75-7.25 4.25-12.4 9.45-6.6 6.7-9.55 16.85-3.35 11.65.8 21.25l1.75 2.45q1 1.45.6 3.3-13.05-2.15-19.55 0-.8.25-3.3 1.8-1.8 1.1-3.1.9 1.7-5.15 9.45-6.6 7.25-1.4 13.5 1.2-2.75-4.35-3.5-11.85-.8-7.4.8-13.8-5.8-3.6-12.9-4.5-7.65-1.05-14.1 1.45-4.7 1.85-9.7 5.9-5.65 4.55-6.85 8.3l-.2.65q-.85-1.25-.15-3.3 1-2.3 1.3-3.4 6.15-6.25 10.7-9.05 7.55-4.65 15.7-4.15 4.5.25 8.9 2.1 3.1 1.25 7.6 4 4.35-11.85 13.85-19.9 8.65-7.3 21.95-11.85Q-82.3 47-67.25 43.4" fill="#61b3f0" transform="translate(275.1 300.8)"/><path d="M-164.65 191.7q.25-.5.8-.65l-.2.6-.35.35-.25-.3" fill="#98c6f6" transform="translate(275.1 300.8)"/><path d="m-164.05 191.65.2-.6.45-.05-.65.65" fill="#98c6f6" transform="translate(275.1 300.8)"/><path d="m-163.4 191-.45.05q.55-1.5 1.9-1.5l-1.45 1.45M-170.8 128.9l.4-1.8v1.7l-.4.1" fill="#98c6f6" transform="translate(275.1 300.8)"/><path d="M153.35-2.85q8.35-5.7 16.9-9 11.35-4.4 20.75-3.55 3.65.35 8.8 2.65 7.5 3.4 8.35 3.7.05 2.45-1.85 6.1-1.8 3.6-1.7 5.65.1 1.5 2.2 3.55 2.15 2.1 2.25 3.35.25 2.75-3 8.2-3.45 5.9-3.7 8.2-.6-.65-.85-2.15l-.45-2.55-.25-.3q-3.8-4.5-11.15-8.4-2.25-1.2-13.4-6.2L188.6 6l11.55-.5q-2-1.6-5.15-1.8l-5.8.05q-6.5 0-13.15 1.35l-1.55.55-1.5.45-5.7-.6-5.7-1.1-12.7-1.85q-.45-.55.7-2.1 1.05-1.35 2.2-2.2l1.55-1.1" fill="#b37c58" transform="translate(275.1 300.8)"/><path d="M78.85-8.55q.65 2.4 2.7 2.5l.05.05h.1q1.65 0 3-1.25 1.4-1.3 1.3-3l.3-.5-.35.05-.05-.3 1.6-.95 1.85-1L90.9-13q0 1.4-1.15 4.9-.8 2.5.2 3.95 1 1.5 3.25 1.6 2.1.1 4.15-1.05 5.2-2.75 2.7-7.4 2.05-2.55 4.4-.7l3.45 3.95q.65-3.25-4.05-6.4-3.8 1.05-5.4 3.35-.15.95.1 2.1l.25 1.95Q96.6-5.45 95.45-5q-2.05.75-4.45.5.55-1.7.75-6.6.25-4.6 1.05-6.45.55-1.25 1.5-2l4.35-3.5q4.1-3.15 4.9-3.25l3.65.4q2.15.6 3.2 1.65 6.65 11.15 12.9 25.6l21.15 3.15 21.4 2.9q24.45 4.1 34.55 13.95.4 8.6-3.8 15.6-2.1 3.55-8.75 10.65-18.4-3.4-31.85-7.8-15.65-5.1-27.85-12.45l-8.5-5.35q-5.3-3.2-8.75-3.75-1.9-.3-5.25-.1l-4.85-.25q-2.15-.5-5.8-3.5-4.45-3.6-6.35-4.6l-2.5-.85q-1.55-.45-2.2-.85-1.9-1.2-4.55-4.8-2.6-3.65-4.25-4.65l-5.05-.3q-.1-1.6-1.55-3.4L66.7-7.4q.15-1.85 2.25-2.55l4.2-.6 2.1 1.25q1.35.95 2.6.9l1-.15M89.7-1.4q.05 1.95 1.75 2.8 1.3.7 3.1.55-.3-1.95-1.4-2.7-1.05-.7-3.45-.65m16.85-6.7q-2.95 1.1-4.8 4.85-2 4.05.4 6.65.45-2.1 2.25-5.7 1.7-3.5 2.15-5.8" fill="#fccea2" transform="translate(275.1 300.8)"/><path d="m158.3-44 13.2-16.7.3-.4q5.9 8.6 12.5 21.85l10.95 23.35q-11.85-1.65-23.75 2.8-7.9 2.95-18.35 9.95l-.6.4-3.45-11.75q-2.15-7.2-3.2-12.05 4.5-7.4 12.4-17.45" fill="#b37c58" transform="translate(275.1 300.8)"/><path d="M180.45-207.3q4.75 16.15 10.3 28-1.85-.05-5.95-1.05l-5.65-.55q.1 6.05 2.3 14.35 2.7 9.1 3.7 13.75-1.65.2-8.35 0-4.9-.1-6.85 1-1.65.95-2.45 3.55l-1.6 4.55q-1.05.15-3.45-.65l-3.6-.35q-1.05.3-2.9 3.05l-2.5 4-7.35 12.05-6.85 11.25q-1.05-.05-1.55-1.3-.65-1.5-1.15-1.75-4.35 2.95-8.9 8.45l-7.6 9.8q-2.75-5.8-1-13.45 1.25-5.5 4.7-11.55 10.05-3.05 18.2-10.1 8.25-7.2 11.5-15.85.9-2.55 1-5.4.05-3.4-1.7-6.15L149.4-167q-.8-1.65-1.5-4.75l-1.2-5.35q-5.3-19.8-9.6-30.75 2 .65 8.3 5.5 5.35 4.1 9.65 4.1-1.7-3.15-5-6.25l-6.05-5.35q-4.85-4.5-11.2-12.9l-10.75-13.75-5.9-6.35q-3.8-3.4-7.6-4.45.15 1.25 1.55 1.55l2.3.65q4.75 3.5 9.8 9.9l8.25 11.65q3.4 5.2 9.45 11.3l10.45 10q-2.5-.65-7.65-4.45-5.25-3.9-8.15-4.8-.35 1.95.75 4.7l1.95 4.75 4.35 15.7 4.05 16.35q-4.15-2.15-10.8-7.75-6.8-5.7-10.75-7.8-.5 3.2.5 8.95 1.35 7.7 1.5 9.95.7 11.65-.35 20.9l-9.8-19.8-10.1-20-3.65-6.25q-2.4-3.9-3.4-6.2-1.4-3.2-2.85-9.2l-2.55-9.35-3.15-8.4q-2.05-4.6-4.65-7.5.35 2.4 1.85 5.8l2.55 5.7q2.8 7.75 5.8 18.7l5 19.75q-.2.2-2.25-.7-2.1-.9-3.15-1.65-2.05-1.45-4.9-4.5l-4.9-5.3-9.75-9.8Q64.2-216.05 55.25-223q-1.3 1.4-.25 3.7l1.95 3.75q2.2 5.85 3.65 12.6 1.5 7.15 1.75 13.7-1.9-2.15-4.05-5.95l-3.7-6.85-7-13.05q-4.1-7.55-7.85-13.3l-4.25-6.45q-3.15-4.3-5.2-4.35-3.9-.05-4.55 7.6-.45 5.75.75 11.95 1.5.1 1.65-.65l.3-1.85q.65-1.25 3.25-4.9 2.3-3.15 2.95-5.05l1.6 1.8 1.1 2.25q-2.6 1.2-3.5 1.85-1.45 1.1-.85 3.2 1.2-.55 2.8-2.25 1.55-1.65 2.9-2.15 0 .55.6 1.5l.45 1.25q.15.55-1 1.05-1.25.5-.95 1.9 1 .65 1.95-.2 1.15-1.1 1.85-1.1 7.5 13.2 18.55 34.2l-4.45.65-4.1.15q1.35 5.1 6.1 11.7 1.3-.05 3.9-2.25 2.05-1.8 3.45-.65-.4.9-2.1 2.45-1.4 1.3-1.65 2.95 3.1-.15 4.95-1.85 1.15-1.05 3.1-4.45l-2.2.25q-1.25.45-1.85 0 1.55-2 4.35-4.45 2.6-2.3 4.9-3.8 1.7-1.1 4.9-2.75l4.95-2.6q1.6 1 3.5 3.5l2.45 3.75q-6.55.9-12.75 4.5-3.85 2.2-10.2 7.3l-3.05 2.25q-1.5 1.3-1.65 3.25 2.25-.3 4.15-1.95l3.2-2.8 4.4-2.7q2.6-1.4 4.15-1.4-3.85 3.6-5.95 8.55-2.35 5.75-1.9 12.35.4 5.55 3.9 10.2 1.25 1.7 6.65 6.95l7.75.6q4.3.05 6.4-1.9-.1-.65-.85-.55l-1.55.2q4.85-2.7 7-9.7 2-6.65.65-13.8-1.4-7.55-5.9-11.55-5.1-4.55-12.75-2.9 4-4 9.1-3.45 4 .4 8.2 3.55l2.1 2.2 2.1 2.4 2.35 2.35q.85 1.45.1 5.1-.7 3.45.55 4.9 1.7-.85 2.25-3.95.4-2.3.1-4.85-.3-2.3-2.35-4.65-2.55-3-3.05-4.1-.9-1.95-1.35-5.25-.5-3.75-.95-5.1.7 1.75 4.3 7.4 3.1 4.9 3.75 7.65.55 2.35.45 6.35l-.15 6.5q.45 9.25.35 15.45-.1 7.95-1 14.1 2.6-.6 3.75-4.3 1.7-5.65 1.95-6.1 1.2 1.6 1.25 6.3 0 4.85.65 5.85 1.65-.8 2-2.8l.6-3.95 1.65-5.2q1-3.4 1.2-5.4.8.8 1.9 3.4 1.05 2.35 2.15 3.2 2.7-2.95 2-10.55-.85-9.4-.15-12.05.5-1.85 3.6-4.9 3.3-3.3 5.3-3.3 3.9 0 8 4.35 4.1 5.25 5.7 6.95 1.2 4.55.3 8.05-2.1 8.1-9.8 15.75-6.25 6.15-14.5 10.55l-1.25-.1-1.1-.2-1.75 1.7-1.8 1.7-4.35 12.05q-2.55 7-5.3 10.85-1.45 2.05-5.45 4.9L98.8-91.4q-6.55 4.6-12.85 8.45-10 6.05-14.4 8.2-8.5 4.2-15.3 4.95-5.2.55-10.5-1.7-.5-.2-9.05-4.75-6.7-3.5-13-7.7l-12.3-8.8-6.45-4.7Q.3-101-.4-102.9q-3.1-7.75-7-23.25-4.6-18.15-6.65-24.45.45-.35 1.65.3 1.35.75 2.4.45-4.35-14.35-5.25-40.8 4.05 8.9 10.75 20.15-2.4 3.6-2.55 7.55-.2 4.55 2.95 6.8 1.45-1.35.35-3.3-1.45-2.6-1.35-3.5.25-2.6 3.7-6.1l4.95-5.25q1.3.2 3.35 1.4 2.55 1.5 3.1 1.7-4.1 1.35-6.55 6.5-2.3 4.7-2.5 10.95Q.7-147.5 2.6-142.6q2.05 5.4 5.95 7.1.3.25.1.75-.15.5.25.85l5.35-.2q1.2-.6 3.65-2.75-.1-1.35 1.1-2.95 1.65-2.1 2-3.05 1.55-4.1 1.35-10.75l-.85-9.85q-1.5-3.6-2.7-4.9-5.6-5.95-10.9-8.4-7.45-3.4-10 3-2.05-13.45-1.55-21.75 3.85.3 8.15 3.35 4.7 3.8 6.9 5.45l6.45 5.1q3.7 2.85 6.9 4.45-.1-3.15-1.95-7.3-2.5-5.6-2.95-7.15-10.05-5.25-23.65-8.8l-.3-16.7 3.7.1 3.2-.4q-.5-1.75-2.65-1.65-1.75.1-3.6 1.15-.6-.55-.25-1.7.4-1.5.25-2.05l18.2 2.7q-1.85-3.05-7.2-3.9l-10.65-.45q.2-2.4 1.2-5.45l1.75-4.9 9.25 5q5.6 3.15 8.45 5.8.5.5.9 2.15.35 1.3 1.45 1.65-.1-2.7-1.7-5.45l-3.45-5.25-3.4-5.7q-2.45-3.5-4.7-3.75-1.55-.15-3.9 1.35-1.9 1.25-3.15 2.7-5.8 6.8-5.9 26.45 1.05 23 1.15 32.25-3.5-5.65-5.55-9.65-3-5.9-4.2-10.9l-.15-2.7q-.2-1.6-1.55-2.05-1.5 1-1.3 4.1.55 3.65.6 5.05.85 14.1 1.65 21.45 1.35 12.25 3.75 19.7-2-.9-4-3.6-2.45-3.35-3.4-4.15-.7 1.6.85 3.6l2.5 3.45q1 2.45 1.9 7.05l1.5 7.8 1.95 7.3q1.25 4.5 1.75 6.9l-3.95-5.7q-2.35-3.55-4.5-5.1l-3.55 5.3q-2.1 3.5-3.85 4.15.85-8.2-1-18.6l-1.15-5.55q-1.05-3.65-2.25-3.85-1.8-.3-4.9 5.8-3 5.9-4.2 5.3 1.1-7.45 1.65-19.25l.7-19.9.5-4.25q.15-2.7-1.15-3.8-1.25.05-1.05 2.45.2 2.8-.3 3.25-6.2 2.35-13 3.45l-15 .6q5.2-3.65 9.45-10.1 3.35-5.15 6.75-13.15 1.35-3.2 3.8-9.95 2.3-5.95 4.3-9.3l1.4-1.55q1-1.05.95-1.8-.1-1.55-5.45-5.25l-6.7-4.55q-6.75-5.65-10.45-11.5 19.15 2.7 36.55-8.75 4.9-3.25 14.05-10.75 8.95-7.4 13.8-10.5 18.45-11.8 33.4-17.25 21.35-7.75 44.3-6.75 16.85.75 32.45 6.4 14.6 5.25 26 14 11.95 9.1 20.25 19.1 10.55 12.65 13.85 25.05 6.55 24.7 7.6 28.1M134-160.65q-2.3 3.15-2.8 6.95-.55 4.05 1.3 6.65-.25 1.15-2.35 2.2-1.95.95-2 2.5 2.7 0 4.65-1.15 2.1-1.3 2.4-3.55.1-.85-.4-2.3-.6-1.7-.6-2.45-.1-3.55 1.8-6.8 2.05-3.5 4.95-4l2.35.45q1.1.4 2.05-.45-2.8-2.95-6.1-2.1-2.9.7-5.25 4.05M20.25-174.3q-3.15-2.85-6.5-3.15 1.45 3.3 4.25 5.85t5.9 3.25q-.55-3.15-3.65-5.95m15.7 57.95q1.1 4.8 4.8 4.7-.3-1.25-2-4.55-1.25-3.35-.35-6.25-3.6 1.3-2.45 6.1m32.8 16.15q-6.25 0-15 2.05l-13.7 3.7q-.25-.15-.75-1.2-.45-.85-1.25-.8-.45.85.2 1.8.2.3 1.35 1.45l12.7-2.75q8.35-1.8 14-2.4l6.9-.75q2.85-.8 2.95-4.1-1.15 2.05-2.95 2.65l-4.45.35" fill="#fccea2" transform="translate(275.1 300.8)"/><path d="M163.55 87.75q-2.75.95-9.1.05l-10.15-1.75q-39.7-5.65-55.5-9 1.85-14.7.8-26.9.55-.55 2.45-1.35 1.65-.7 2.2-1.65-.15-11.1-1.9-31.25l.05-.55q.95-1 3.35.75l3.95 2.55 6.4.7 6.2.65q3.1.9 7.4 3.65l7.1 4.75q10.05 6.45 21.55 10.75 10.6 4 25.55 7.35.95 18.6 1.45 24.7l.45 4.2q.25 2.5-.1 3.55-.4 1.3-2.7 2.5l-4.4 2.25-2.6 2.25q-1.6 1.5-2.45 1.8M80.5-65.55q2.25.35 6.9 6.8-.1 1.25-.8 2.75-.9 1.75-1.05 2.45.9 1.4 3.5 3.1l3.75 2.8q.55 1.8-.2 5.5-.65 3.2.3 4.6 1.85-2.6 2.45-8.8.8-8.8 1.2-10.45l2.9-.65q1.8-.35 2.55-1.1.2-7.2 2.8-15.1 2.25 1 6.2 5.5t6.7 5.8q3.65-5.3 7.2-12.95l6-14.15q6.3 5.2 20 14.25 14.2 9.4 20.15 14.15l-10.15 11.9q-7.35 8.35-10.85 12.75l-3.65 4.35q-2.15 2.75-2.4 4.4-.4 2.45.8 6.35l2.2 6.5q2.25 6.75 4.05 11.45-.5 1.05-2.7 2.7Q146.4.85 146 2.4L124.1.35q-1.45-2.8-6.15-13.4-3.7-8.4-6.7-12.9l-4.8-1.55-4.95.2q-3-2.1-4.8-2.8-3.15-1.3-5.35.75-6.25-2.2-13.95 1.05-8.2 4.3-12.35 5.4l-2.85.2q-1.6.1-2.55 1.15l-3.25-1.3q-1.5-4.15-5.15-10.5-4.6-7.95-5.8-10.45 4.6-3.4 14.5-12 9.5-8.25 14.15-11.55l.25 6.45q.1 3.95 1.25 5.5 2.1-1.15 3.15-4.4l1.75-5.75" fill="#b37c58" transform="translate(275.1 300.8)"/><path d="M103.25 91.4q14.05-3.25 22.9-3.85l9.15.25q5.3.85 6.75 3.35-.6 1.3-3 2.5l-3.8 1.5-48.85 17.3 1.15-3.5q.5-2.15.15-3.95-.5-2.85-2.85-4.05-1.95-1.05-4.6-.8v-.05l1.6-.35-.2-2.65-.15-1q4.65-.7 21.75-4.7" fill="#ccc" transform="translate(275.1 300.8)"/><path d="M135.55-174.05q-1.7 1.05-3.85 3.05l-3.55 3.35q-.05-3.1-.65-6.95l-1.05-6.55 4.5 3.6q2.8 2.4 4.6 3.5" fill="#fff" transform="translate(275.1 300.8)"/><path d="M129-87q0 1.7-2.3 5.5l-3.65 5.95-3.05 5.8q-1.65 3.2-2.35 5.35-2.2-1.5-6.3-5.65-3.85-3.9-6.5-5.5-.8.3-1.05 1.5l-.3 2.2-.8-3.2q-.6-1.95-.2-3.2.45-1.4 3.95-4.55l5.25-4.5q4.1-3.6 6.05-5.75 2.9-3.2 4.4-6.55l3.8 6.1Q129-88.45 129-87" fill="#b37c58" transform="translate(275.1 300.8)"/><path d="m121.4-150.45-1.5 6.95-1.9 6.55q-.45-1.1-.85-6.05-.3-4-1.85-5.1-1.45.35-1.95 2.75-.65 3.1-1.1 3.65-.25-3.3-.45-14.9-.15-9.4-.9-14.45 2.2 3.5 5.35 10.2 3.55 7.6 5.15 10.4" fill="#fff" transform="translate(275.1 300.8)"/><path d="M117.25-101.25q1.05 4.2 2.15 5.65-2.75 3.8-8.7 8.45l-9.55 7.55q-.45 3.05-.35 9.95.05 7-.35 9.95l-2.65.6-2.75.4q-.65 1.45-.95 3.95l-.4 4.5q-1.25-.45-2.95-2.75-1.75-2.4-2.1-4.35-.1-.55.1-2.05l.25-2.3q-.1-2.8-1.35-8.8l-1.4-4.85q-1.05-3.15-.9-3.85.25-1.05 2.9-3.05l4.25-3 6.95-4.55 9.9-7.5q4.45-4.15 6.05-9.95.6 1.25 1.85 6M94.65-21.35l-2 3.7-1.15 2.35q-.6 1.1-2.3 2.1-1.75.9-3.65.95-2.15.05-3.75-1.05l2.65-5.3q1.75-3.2 2.4-5.5 9.05-7.75 13.55-2.55-.9 1.45-2.75 2.7-2.05 1.4-3 2.6" fill="#fccea2" transform="translate(275.1 300.8)"/><path d="M92.35 15.9q-.2 5.05.3 14.95.5 10.65.4 15.4-.5.95-2.4 1.55-1.85.6-2.35 1.8-.3.75-.05 2.5l.4 2.9q.3 5.15.1 11.5-.15 6.7-.75 10.45l-6.75-1.15h-.9q-1.7-15.2-5.1-37.75L69.7.7q3.05-2.05 6.7 1.8L79.45 6q1.8 2.05 3.15 2.85 1.45.9 5.2 2.4 2.85 1.15 4.65 2.75l-.05 1.35-.1.1.05.45" fill="#b37c58" transform="translate(275.1 300.8)"/><path d="M89-52.25q-.25.45-.85-.1-.75-.7-1.2-.6.4-.5.35-1.35.7 0 1 .9.3 1 .7 1.15" fill="#fff" transform="translate(275.1 300.8)"/><path d="M99.95-158.95q-.1 8.6-4.3 13.8-4.7 5.9-12.6 4-5.1-1.2-8-6.85-2.65-5.2-2.55-12 .1-6.85 2.95-11.85 3.15-5.45 8.5-6.35 7.55-1.25 12.05 5.05 4 5.65 3.95 14.2" fill="#c15e24" transform="translate(275.1 300.8)"/><path d="M78.35-21.45q1.75-10.1 11.05-7.05-2.9 1.85-5.15 6.95-3.2 7.35-4.05 8.6.3 1.6 2.15 2.15l3.6.1.05.45Q83.75-6.5 81.7-6l-.15-.05Q79.5-8.55 78.6-13q-.95-4.5-.25-8.45" fill="#fccea2" transform="translate(275.1 300.8)"/><path d="m85.95-10.7.35-.05-.3.5-.05-.45" fill="#fccea2" transform="translate(275.1 300.8)"/><path d="M79.55-75.6q2.45-2.75 4.8-4.35 1.2 2.5 1.7 8.2l.9 9q-1.9-2.45-5-4.5-2.95-1.95-6.35-3.1 1.65-2.7 3.95-5.25" fill="#b37c58" transform="translate(275.1 300.8)"/><path d="M79.7 101.4q2.1-.75 4 .5 1.75 1.15 2.6 3.4 2 5.5-2.9 8l-3.7.25q-1.7-.6-2.9-2.35l-.1-.1-.55-1.35q-.85-3.05-.05-5.5 1.1-2 3.6-2.85" fill="#660f0d" transform="translate(275.1 300.8)"/><path d="m64.75-189.2 9.25-3.4q5.7-2.15 9.25-2.1-14.1 9.2-17.5 11.3-.3-2.8-1-5.8" fill="#565351" transform="translate(275.1 300.8)"/><path d="m81.65 97.1.2 2.65-1.6.35.3-3.85.95-.15.15 1" fill="#a21e25" transform="translate(275.1 300.8)"/><path d="M50.15-8.3q9.8 2.15 17.1 4.8Q69.4 7 73.3 36.6q5.25 40 8.2 59.5l-.95.15-.3 3.85q-3.1 1-4.15 4.15-.85 1.55-.65 3.5.2 1.8 1.25 3.35l.1.1q.65 1.2 1.95 2.35l2.25 1.9q-3.35 1.8-7.2-.6-3.8-2.4-3.75-5.9 0-2.85 1.4-5.9 1.1-2.4 2.8-4.4-1.65.4-2.6 1.85l-1.9 2.55q-76.3-28.5-128.65-45 .1-2.3-1.7-6.35-1.8-4.1-1.8-6.05l.05-.2q.05-.6.7-1.85.55-1.15.5-1.9-.05-1.15-.8-2.3l-1.45-1.95h-.05l-.3-.45q.35-5.25.2-7.95-.25-4.8-2.25-7.15l-.1-.25-.1-.05q1.2-4.05-1-8.1l-3.85-6.65-.35-1.05-2.1-7.65-1.65-8.15Q-77.3-21.65-78-28.75l.3-1.3q.4-1.05.75-1.2l54.75 9.55 54.6 9.95L50.15-8.3" fill="#fff" transform="translate(275.1 300.8)"/><path d="M79.6-66.25q-2.3 4.05-2.85 6.2-.6-1.2-.85-4.35l-.5-4.7q.9.4 2.2 1.35l2 1.5M38.25-29.35q1.5-4.35 6.05-13.2L49.8-32q3.15 6.2 6.6 9.15l3.25 1.3q1.3 6.05 6.85 7.2 5.15 1 9.75-2.55.1 1.6.65 4.2l.95 3.95q-1.9-2.75-7.55-2.5-5.8.25-6.25 3.85l-28.3-5.25q-.35-8.45 2.5-16.7" fill="#b37c58" transform="translate(275.1 300.8)"/><path d="m76.15 109.75.55 1.35q-1.05-1.55-1.25-3.35-.2-1.95.65-3.5-.8 2.45.05 5.5" fill="#a21e25" transform="translate(275.1 300.8)"/><path d="m79.55-27.55-2.8 4.8q-1.8 3.05-.95 5.85-3.05 2.65-8.15 1.6-5.25-1.05-5.95-5.2 3.1-.45 8.15-3.65 4.8-3 9.7-3.4M70.85-206.45q6.9 6.15 10.15 10.05l-8 3.4q-5.1 2.15-8.45 2.95-.95-11.9-4.8-26.35l11.1 9.95" fill="#fccea2" transform="translate(275.1 300.8)"/><path d="M68.95 102.75q-1.15 2.95.45 7 1.1 2.75 3.3 5.65-21.45-7.95-62.3-22.6l-62.35-22.55q-1.4-1.9-2.75-5.2-1.3-3.3-1.9-6.15Q-34.75 66 6.05 80.7q43.1 15.5 62.9 22.05" fill="#ccc" transform="translate(275.1 300.8)"/><path d="m67.55 115.7-.45 1.05q-1.85.3-3.75 2.1l-3.15 3.3-3.6 3.15q-2.2 2-2.8 3.6-3.85 9.75-9.75 30.6-6.6 23.25-9.5 31.45l-3.25-.6-3.4-.45q-.15 1.35 1.55 1.65l2.6.55q-1.85.7-2.85 1.15-1.75.8-2.4 1.6-.05 2.35-.75 5.55-.85 3.8-1 5.2l-2.25.05-2.1-.15q.05.9 1 1.1l1.8.15-4.4 4.45q-3.2 2.9-4.45 4.4l-4.95-2.1q-3.15-1.35-5.1-1.95 1.5-1.55 4-3.3l4.3-3q1.4-2 1.95-6 .65-4.75 1.35-6.4l.4-.8q.6-1.1 2.45-2.6 1.9-1.45 2.45-2.5 1.5-2.75 2.7-10.3l1.6-11.3Q28 142 30.15 131.7q3.6-17.55 13.9-24.2l.45-.3 2.55.9 6.7 2.2 6.75 2.2 7.05 3.2" fill="#3a342e" transform="translate(275.1 300.8)"/><path d="m60.5-187.65 2.5 6.15q-.75 1.25-2.25 2.3l-2.8 1.75-2.7-4.8q-1.95-3.25-2.7-4.85l3.9-.3 4.05-.25" fill="#565351" transform="translate(275.1 300.8)"/><path d="m40.85 106.6 1.55.25-3.25 3.2q-1.85 2-2.8 3.65l-4.8-6.15q-3.2-4.5-4.95-6.3l1.2.15q11.1 1.75 14.8 5.25l-1.75-.05" fill="#3a342e" transform="translate(275.1 300.8)"/><path d="m38.7 242.95-2.55 5.2-2.8 4.9q-6.85-3.25-15.2-7.75l-7.45-3.85q-4.45-2.35-7.05-4.6l-5.75-5.4-6.05-5.7-9.2-8.1q-5.55-3.9-12.4-4.4 3.2-2.45 8.6-1.45l8.95 2.1 7.1-.3 6.7-.35q1.75.25 5.75 1.95 3.6 1.5 5.75 2.75 2.7 1.6 6.5 5.8l6.3 6.7q9.3 8.45 12.8 12.5" fill="#fff" transform="translate(275.1 300.8)"/><path d="m33.65-233.8-3.4 5q-2.1 3-2.65 5.8-.7-4.3-.25-8.2.55-4.55 2.6-6.3 1.1.45 2.1 1.6l1.6 2.1" fill="#fccea2" transform="translate(275.1 300.8)"/><path d="M21.85 100.55q3.5 1.7 7.15 7.1 4.3 6.35 6 7.75-8.15 13.05-8.75 30.05-10-4-15.35-6.5-9.55-4.45-13.65-8.7-3.9-4-4.4-13.6-.55-10.15 4.05-14.4 3.2-2.95 11.65-3.5 8.4-.55 13.3 1.8M14.8 246.75q7.85 3.4 10.75 4.95l1.5.6q1 .5.2.75-3.25-.9-11.9-4.8-7.75-3.45-12.4-4.3l-3.55-.35-3.5-.65q-4.2-1.45-8.95-4.75-3.15-2.2-7.95-6.4-5.1-4.4-7.3-7.3-3.5-4.65-3.5-9.55 10.15 1.05 19.85 11.15l7.75 8.4q4.55 4.7 8.5 7.1 3.6 2.15 10.5 5.15" fill="#fff" transform="translate(275.1 300.8)"/><path d="M19.1-163.25q4.05 7.05 1.25 17.1T11.55-136q-4.45.15-7.15-4.75-2.45-4.3-2.6-10.85-.2-6.5 1.9-11.35Q6-168.3 10-169q1.95-.35 4.9 1.6 2.85 1.85 4.2 4.15" fill="#c15e24" transform="translate(275.1 300.8)"/><path d="m18.5-191.15 1.9 5.3q1.15 3.15 2.15 5.15-3.9-2-10.25-7.55-7.3-6.3-10.35-8.3 3.25.5 8.25 2.3l8.3 3.1" fill="#565351" transform="translate(275.1 300.8)"/><path d="M1.25-233.8q3.15-5.5 7.65-1.45 2.95 2.6 5.85 8.55-5.1-3.8-13.5-7.1" fill="#fccea2" transform="translate(275.1 300.8)"/><path d="M12.3 94.95q-7.8 1-10.8 1.9-5.9 1.65-7.65 5.05-2.65-1.15-4.75-1.5.7-1.45 3-2.35l3.8-1.65q-.75-1.1-2.5-.6-.95.3-2.6 1.05-6.3-2.35-13.15-7.95L-33.5 79l1.7.6q6.8 2.2 21.9 7.6l22.2 7.75" fill="#3a342e" transform="translate(275.1 300.8)"/><path d="M-10.45 109.35q.4-2.5.25-4.4-2.2.25-2.9 3.7-.7 3.4 1.2 4.75.95-1.3 1.45-4.05M-57.1 83.3q-3.15-3.45-3.3-8.3-.15-5.1 3.15-9.45l.05-.05q1.95 4.55 8.5 7.3l11.8 4.1.35.4 11.6 11.5q7.05 6.35 14.1 8.9l-6 5.75q-3.1 3.45-4.6 7.2 2.05-.55 4.8-4.5 2.95-4.25 5.1-5.25 1.45.8 4.9 1.65-2.9 6.35-2.55 17.25-2.25-1.25-4.7-4.05l-6.25-.3q-3.85-.15-5.05-1.55-.05-.75.4-1.75.4-.85.1-1.45-3.75-4.2-15.8-13.4-12.3-9.3-16.6-14" fill="#3a342e" transform="translate(275.1 300.8)"/><path d="m-63.4 37.45 1 2.7q.55 1.75-.1 2.4-8.1-3.1-10.35-7.15 2.7 1.55 4.35 2.15 2.9 1.1 5.05-.1h.05M-64.05 32.65q.45.65 0 2.25-.5 1.5-1.15 1.9-3.4-.65-6.7-3.25L-77.4 29q-.5-4.45-.3-6.55l6.25 5.7q3.95 3.4 7.4 4.5M-65.8 21.9l1.2 4.4q.55 2.9-.05 4.7-1.65-.35-4.05-2.2l-4.1-3.6q-3.25-3-4.45-5.05-2.15-3.5-.75-6.75l5.1 5q3.25 2.8 6.9 3.2v.05l.2.25" fill="#fccea2" transform="translate(275.1 300.8)"/><path d="M-74.5 5.05q4.45 4.45 5.55 6.1 2.8 4.15 2.55 9.15-4.95-.6-8.15-5.7-3.45-5.45.05-9.55" fill="#fccea2" transform="translate(275.1 300.8)"/><path d="m101.75 84.4-9.5 3.35q-9.6 3.45-9.95 4.05-.4.6-.9-4.35L80.9 81l20.85 3.4" fill="#6d6966" transform="translate(275.1 300.8)"/><path d="m-141.6 105.4 1.15 4.15q.8 4.8-.65 8l8.4.6q8.75 1.15 10.45 4.1l-9.4.1q-9.7.6-11.35 3.4l-1.75 1.6q-1.65 2.35-1.05 6.15.4 2.65 3.3 6.65 3.3 4.65 8.15 8.15 13.15 9.55 29.3 5.1l-6.55 4.75q-7.7 6.05-13.4 12.35-18.25 20.15-9.8 35.4 7.4 7.5 20 11.75 25.2 8.5 51.25-7.8l-3.8 3.3q-4.4 4.05-7.4 7.7-9.55 11.65-1.45 14.8 6.85.35 13.35-1.9 12.85-4.45 11.3-17.25l.7 4.65q1.15 5.9 2.8 10.65 5.25 14.95 14.05 12.8l-5.85 1.6q-6.75.8-10.1-3.3l2.95 5.35q3.2 5.45 4.55 5.9l-1.7.25q-2.15.05-4.5-.8-7.45-2.75-13.75-13.75l-8.05 3.3q-10.05 3.5-20.15 4.6-32.25 3.5-52.6-18.45-2.3-3.45-4.85-8.95-5.1-10.9-6.4-20.8l-3.85-1.65q-4.3-2.35-6.3-5.75l1.2-1.15q-1.1.05-1.3.95l-.4-.8q1.8-2.85 3.35-6.2 3.2-6.75 2.25-9.3l4.7-1.05q5.2-1.45 7.6-3.6 3.6-3.85 4.95-8.5 2.7-9.2-8.35-12.85.85-5.25-.7-10.5-3.15-10.6-15.25-10.8l-6.05 1.85q-.35 0 2.9-22.95-.45-.15 2.7-2 3.5-2.05 7.3-3.25 11.8-3.7 18.1 3.4" fill="#fff" transform="translate(275.1 300.8)"/><path d="M-164.7 191.95q.2-.9 1.3-.95l-1.2 1.15-.1-.2M245.2 81.35q4 6.65 6.35 12.8 2.35 9.65-4.65 12.9-2.2 1.05-5.05 1.3l-2.45.05q-7.35-15.95-28.1-20.8-6.45-1.5-13.5-1.75l-5.75.1q4.8-2.45 23.15.3 9.2 1.35 17.4 3.2 2.2-2.95-3.75-7.75l-6.35-4.2q12.5.45 10.35-5.8-.65-1.85-2.65-4.25l-1.6-1.9q8.5 2.5 16.6 15.8" fill="#fff" transform="translate(275.1 300.8)"/><path d="M239.3 130.8q-2.5-3.65-7.45-7.1l-4.4-2.75q5.9-1.95 1.7-12.25-1.3-3.2-3.5-6.9l-1.9-3q2.75-.95 8.5 2.75 2.9 1.9 5.2 3.95 1.4 1.55 4.9 10.2 12.9-1.2 20.5 5.65 7.75 6.95 11.3 23.35 3 13.9-3.4 25.65-2.3 4.2-9.25 11.6-1.85 1.95-8.85 4.15l-6.6 1.8-2.25 10.45q-3 12.4-6.7 22.05-3.95 10.15-16.5 17.65-7.05 4.2-21.65 9.6-8 2.95-26.65 1.25l-17.1-2.3-.6 2.05q-.9 2.55-2.4 5.35-4.9 8.9-14.2 16.5-9.4 7.6-25.3 5.6-6.7-.85-15.65-4.05l-5.7-2.35-4.15-1.85Q73.6 285.2 53.9 292.5q-9.85 3.65-16.95 3.8Q-.4 303.55-6.2 257.95-8 243.7-6.45 225.9l1.95-15q38.9 66.35 62 58.1 7.2-2.6 11.95-12.35 1.5-3 2.6-6.4l.75-2.8q14.5 15.15 41.9 9.1 13.7-3.05 24.5-9.1-23.3 4.2-31.15-24.35-2.5-8.95-3.1-20.05l-.15-9.35q1.95 23.95 28.25 32.3 13.1 4.15 25.85 3.55 19.8-.65 20.45-24.45.25-7.45-1.5-16.3l-1.75-7.4q24.85 25.05 41.1-.1 8.15-12.55 11.3-30.1 18.9-8.8 10.8-20.4M-53.7 155.3l.7 2.05q1.05 2.4 2.55 3.9 4.95 4.95 13.15-.35l3.25 4q4.1 4.5 8.3 7.15 12.5 7.95 21.05-3.45l-1.95 2.75q-3.9 4.95-7.85 7.7-12.6 8.9-21.4-6.9-5.6.25-10.65-1.75-10.1-3.95-7.15-15.1M-71.05 46.8q-.5.2-2.2 2.35-2.2 2.75-3.6 5.8-4.25 9.25 1.1 16.2l-5.85 3q-6.7 3.85-10.75 8.1Q-105.3 95.7-87 107.7q5 2.1 10.9 3.25 11.85 2.2 16.55-2.75l-.7 1.45q-.75 1.8-.9 3.6-.45 5.75 5.1 9.45-17.45 5.7-34.7 5.25-34.45-.95-33.25-31.7 2.6-6.4 8.25-13.6 11.35-14.4 26.9-18.5 2.45-4.6 5.9-9.1 6.95-8.95 11.9-8.25" fill="#fff" transform="translate(275.1 300.8)"/><path d="m-161.1 82.35-.3-2.4q8.85-1.25 11.65 8.35 1.15 3.9.6 8.1-.6 4.25-2.75 6.85l.15-3.2q.45-8.9-3.55-10.3l-3.95.3-4.15 1.75q.15-1.9 1.1-4.8 1.05-2.95 1.2-4.65" fill="#80822b" transform="translate(275.1 300.8)"/><path d="M35.6-233q4.25 6 5.4 9.45-13.7 2.75-14 3.95-.55 2.85-.3-8.1.2-9.3 2.1-10.7 1.95-1.45 6.8 5.4" fill="#565351" transform="translate(275.1 300.8)"/><path d="m170.25-243.15 4.9 15.15q5.05 16.15 5.75 21.4.65 4.4 6.45 16.45 5 10.35 4.1 10.85-.85.5-6.7.15-5.35-.35-5.35.45l3.45 13.9q3.35 13.05 3 13.85l-7.25.4-7.3-.4-2.05 4q-1.9 3.9-2.95 4.45l-4.4.4-3.45-.05q-.6.35-18.75 29.3l-4.35-2.95-15.95 18.65-2.8-10.1q-.45-1.7 2.85-9.75l3.35-7.7q17.35-6.75 25.1-19.75 5-8.3 4.55-14.35-.15-2.25-6.85-8.55-6.25-5.85-7.9-6.3-1.6-.5-6.15 2.7-4.85 3.4-4.15 5.85.65 2.25-.4 12.7l-1.15 10-3.6-7.85-4.7 17.8-2.35-12.5-5.85 11.35q1.65-38.3 1.05-40.75-.6-2.5-5.5-11.85-4.95-9.45-4.1-5.05.8 4.15.25 8.05l-.7 3.1-16.65-15.6q-7.05-6.65-26.5-23.2 2.8 4.8 5.3 21.1l2 15.35-14.65-27.45q-15.4-27.7-19.1-29-5.95-2.1-4 19.8-.6-.85-6.55-4.35l-.1 4-17.6 2.25q-7.3-.25-7.65.7-.35.95 1.8 45.85l-12.4-21.8q-.65 7.9 2.15 25.9l2.95 16.4-3.95-1.35 8.4 33.2-5.2-7.65q-5.3-7.3-5.7-5.5-.35 1.8-5.6 7.35l-5.2 5.2.6-1.15q.75-1.95 1.5-5.8.8-3.85-1.7-13.75-1.25-4.95-2.65-9.15L-41-137.25q4.7-46.05 3.7-44.45-.7 1.15-12.2 3.15-11.4 1.95-14.15 1.5-4.05-.65-5.5-1.25-2.2-.9 2.2-1.35 4.15-.45 13.35-19.25 4.65-9.45 8.8-19.75l2.9-7.75q-7.9-3.3-15.15-12.4-3.65-4.55-5.7-8.45 15.7 4.25 36.2-9.25 5.7-3.75 16.45-12.2 10.3-8.15 14.95-11.1 11.8-7.45 31.6-13.75 9.95-3.1 17.5-4.75 24.75-5.9 53.25 3.45 19.35 6.35 36.1 17.85 9.3 6.4 19.05 20.75l7.9 13.1" fill="#565351" transform="translate(275.1 300.8)"/><path d="M144.85-150.35q-.45 1.25-5.4 7.2-5 6-5.5 5.8L131-138q-2.6-.35-3.25.3l1.1-1.85q1.75-2.95 1.1-4.1l1.85-.75q1.85-.95 1.9-1.75l-.35-4.9q-.4-4.25-.2-5.05 6.3-11.35 10.85-7 2.9 2.75 2.4 7.35-.25 1.8-1.55 5.4" fill="#f1916b" transform="translate(275.1 300.8)"/><path d="m81.05-179.15 3.05-1.5q3.75-1.55 7.2-2 11.2-1.45 15.75 9 .3 7.4-1.3 15.3-3.25 15.7-12.75 17.95l-1.2-.75 4.35-4.45q4.3-5.45 3.9-10.3l-1.25-12.9q-1.8-7.4-7.9-9.05-5.45-1.45-7.7-1.1l-2.15-.2M63.65-169.55q11.8-9.2 14.35-9 1.4.1-1.55 4.35-3.65 5.3-3.9 6.65-1.2 6-.5 11.35 1.25 9.95 8.65 15.7-.85-.25-2.2-.8-2.65-1.1-4.95-2.6-7.35-4.85-8.5-11.95-1.15-7.1-1.4-11.1v-2.6" fill="#fff" transform="translate(275.1 300.8)"/><path d="M39.85-126.3q-.8.6-1.45 3.4-.5 2.15-.75 4.9-.05.8 3.35.95 3.35.2 3.15.95-.3 1.4-1.6 2.85-1.45 1.65-2.8 1.4-1.55-.3-3.45-2.85-2.05-2.75-2.15-5.25-.1-2.2 2.95-4.55l2.75-1.8M1.55-217.95l5.05.25q-.75.5-1.8 1.65-2.05 2.3-3.35 5.5-1.3 3.2-3.05 22.35l-1.5 18.5-10.1-16.95q-.5 1.75 2.3 20.9l2.85 18.8q-2.55.1-5.35-.1l.75 3.15-1.95-7.6-3.4-5.05 7.35 6.4q-3.8-20.35-4.4-22.1-.4-1.15-1.15-12.45l-.6-11.45q.1-.35 6.9 13l2.9 4.05q3 4.05 3.2 4.05l-.6-20.5q-.7-20.7 0-21.55.7-.9 5.95-.85M102.6-183.65l-1.35-1.6.15 6.1-10.2-8.55 10.05 6.65-.5-10.45q2.6 3.25 5.05 7.45 4.9 8.45 4.25 13.45-4.7-10.8-5.5-11.15-.55-.2-1.95-1.9m-13.15-1.15-24.4-22.95-.45 27.2-2.45-17.2q-2.7-17.6-3.9-19.35l31.55 28.45 1.25.85-1.6 3" fill="#f1916b" transform="translate(275.1 300.8)"/><path d="M82.65-178.35q9.65-3.05 14.25 6 1.45 2.85 2.2 6.55l.5 3.15q-1.95-4.45-4.15.2l-1.8 5.55q-.35 6.65-4.95 8.5-1.45.55-3.15.6l-1.4-.1q-5.95-.2-7.5-8.7-.75-4.2-.35-8.4l-1.95 2.7q-2 2.65-2 2.35-.55-8.7 4.85-14.45 2.65-2.85 5.45-3.95M4.5-154.45l-3.3 1.85q0-6.5.75-9.2 1.85-7 8.2-7.9 6.2-.85 9.35 5.55.95 1.95 1.5 4.45l.35 2.1q-2.1-1.3-3.3 3.15l-.8 4.7q-.55 4.8-3.65 6.1l-3 .35q-3.55.2-5.2-5.45-.8-2.8-.9-5.7" fill="#431f06" transform="translate(275.1 300.8)"/><path d="M95.9-171.5q0 1.55-.95 2.6-.95 1.1-2.3 1.1-1.3 0-2.25-1.1-.95-1.05-.95-2.6t.95-2.6q.95-1.1 2.25-1.1 1.35 0 2.3 1.1.95 1.05.95 2.6M19.3-162.2q0 1.55-.9 2.6-.95 1.1-2.3 1.1-1.35 0-2.25-1.1-.95-1.05-.95-2.6 0-1.5.95-2.55.9-1.1 2.25-1.1t2.3 1.1q.9 1.05.9 2.55" fill="#fff" transform="translate(275.1 300.8)"/><path d="M75.6-100.8q-.15.3-5.65 2.35-6.4 2.4-12.3 3.95-18.05 4.75-19.3-1.2l13.4-3.25q14.55-2.95 20.35-1.5 4-1.3 3.5-.35M113.65-103.7l3.15-4.85 3.55 11.6-7.95 8.9-10.6 9.75.2 3.6q.2 3.55.5 3.4.45-.15-.8 12.75l-5.2 1.75-.8.65-1.1 5.85-.75.55q-.95.35-1.65-.6-.75-1.05-.15-4.05.5-2.65.95-3.15l3.25-.45q3.2-.35 3.85-1.05.7-.8-.9-7.35l-1.8-6.45q-3.3 3.05-7.3 3.15l-3.35-.5-1.2-11.2 22.2-15.45q2.3-1.65 5.9-6.85" fill="#f1916b" transform="translate(275.1 300.8)"/><path d="m93.05-119.85-15.55.8q-3-.6-5.65-2.35-4.25-2.8-.7-6l5.45-3.85q6.3-3.55 10.6-2.05 4.5 1.6 7.15 4.55 1.95 2.15 1.95 3.45 0 .6-1.55 2.95l-1.7 2.5" fill="#fff" transform="translate(275.1 300.8)"/><path d="m73.85-19.05 2.15-.4q.8 0 .8.75 0 .95.5 3.25.45 2.4.9 3.2.35.8 2.2 2.45l2.35 1.9q.75.4 1.75-3.05.1-.15-1.2-.85l-1.7-1.15q-.7-1 1.25-2.55l2.5.1 2.8.25q1.1-.45 1.6-1.65l.75-2.45q.2-.8 2.7-3.1L96.35-25l2.1-1.4q1.5-.85 2.25-.7.75.15.2 1.1l-.9 1.25-2.2 1.85q-2.15 1.55-3.15 1.55-.95 0-2.2 4.2l-1 4.2-.5 3.2q-.45 3.1 0 2.65l1.55.1 2.45.6q1.15 0 1.8-1.9l.75-3.1q.35-1.1 2.75-2.6 2-1.3 3.25-1.65.7-.2 2.2 1.75l1.9 2.35q.45.3.2 1.35l-.35 1.25-1.65 2.5-2.45 3.95q-.5 1.05-1.3 4.15-.7 2.75-1.15 3.3-1.35 1.75-7.5 1.55-1.05-.05-6.8-3.3L80.05-.75l-3.7-.3-2.75.4q-2.9.6-5.15-2.15l-2.1-3.35q-.85-.85-.25-3.3.2-.85 3.65-1.05l3.4-.05L77.8-9l-1.6-7.9q-6.8 2.45-8.2 2.45-1 0-3.1-1.15-2-1.15-3.1-2.25-.85-.85-.55-1.85l.5-.8q.6 1.4 5.75 1.65l6.35-.2" fill="#f1916b" transform="translate(275.1 300.8)"/><path d="m80.85-67.55-5.3-1.6 1.05-2.35q6.95-6.8 7.1-6.45 5.1 15.7 3.55 13.6-.95-1.3-6.4-3.2M129.2-88.3l2.45-.9 18.3 12.85q-3.75 3.5-12.35-.1l-7.85-4.3-5.45 5.8-7.9-2.05q-8.1-2.1-9-2.55-.85-.45-3.05.7l-2.05 1.25q.15-2 2.05-4.2 1.8-2.1 4.1-3.2 3-1.4 11.9-11.95l2.35-2.95 6.5 11.6M176.8 75.85q-.15 2.8-1.4 4.8-1.15 1.75-2.35 1.75-.85 0-5.3 2.55l-4.25 2.55q3-1.1.9.55-1.3 1.05-12.15.15l-10.55-1.1-62.6-11.25.75-3.75q2.3.2 6.5-1.1 4-1.2 4.95-2.15 1.2-1.2.95-12.2l1.65 12.9q4.55.7 32.8-13.65 14.15-7.15 27.4-14.5l19.8 5.1q3.15 25.35 2.9 29.35M85.5 40.05q2.05 4.35 15.7 1.3 6.85-1.5 13.3-3.9-6.2 8.95-20.2 12.5-4.45 1.15-9.15 1.55l-4.15.2q-2.95-.3-4.1-2.85l-.6-2.5q1.9 4.55 12.15 2.35 5.15-1.05 9.9-3.05-6.3 1.9-10.25-1.7-1.2-1.1-2.05-2.65l-.55-1.25M183.05-44.4l5.75 13.1q5.85 13.25 6.45 14.3.7 1.15 4.35 3.2 3.45 1.9 4.2 1.9.6 0 2.9 2.4 2.25 2.35 2.1 2.8l-1.4 5.65q-1.15 5.3-.6 6.2l1.6 3.35q.95 2.35.85 3.15l-2.55 6.4-2.45 5.8-3.9 6.35q.3-6.5.1-8.45-.1-1.05-1.4-1.9-2-1.3-2.8-2.2-1.3-1.45-7.15-4.55l-5.6-2.85q7.9 1.75 12.45-1.1 3.35-2.15 3-3.9-.1-.6-4.15-.65l-5.6.1L178.05 6l-9.85 1.25q-.2.05-.55-1.2l-.3-1.25q0-1.7 15-6.45Q197.9-6.6 198.1-6.8q.95-1.15-2.55-8.15-5.45-1.95-14.7.05l-10.55 2.85q-1.9.4-6.6 2.55l-4.35 2.1q.85-2.6 13.15-11.25Q184-26.8 183.4-29.8q-.9-4.15-4.75-16.1-3.25-10-4.15-11.85l8.55 13.35M53.25-29.55q1.3 2 3.65 8.75 3.15 8.95 2.2 12.8-.35 1.4-2.65 1.05-1.9-.3-2.75-.95L51.5-25l-2.6-6.4q-2.55-6.65-2.45-7.9.1-2 6.8 9.75" fill="#8a4f29" transform="translate(275.1 300.8)"/><path d="M19.4-220.3q.3 1.3-8.8 2.2l-9.15.65-6.6.95q2.55-13.1 3.1-14.5.8-2.25 3.3-4.65 3.5-3.3 6.9-1.85 1.95.85 6.8 9.1l4.45 8.1M-62.5-246.1q6.45 2.35 13.4 4.7 13.8 4.6 16.1 4.4 2.35-.2-2.3 5.95-3.55 4.7-6.3 7.45-.95.95-1.65-1.35l-.45-2.55-9.25-7q-9.35-7.75-9.55-11.6" fill="#282726" transform="translate(275.1 300.8)"/><path d="M171.55-241.9q.6.9 5.75 22.55l11.95 34.45q2.35 6.45 1.85 6.8l-11.8-1.05 3.5 13.9q3.55 13.95 3.75 14.1.35.2-15.7.35l-4.45 9-8.1-1.15-9.15 15-9.45 15.1-1.6-1.7q-1.6-1.65-2.75-1.25-1.85.7-15.95 18.65l-1.4-4.25q-1.45-4.85-1.75-7.7-.3-2.85 3.1-9.5l3.45-6.1q5.5-.3 15.75-9.9 3.85-3.55 11.1-11.55 1.7-1.85 2.2-8.55.45-6.4-.55-7.6-1.2-1.4-4.35-6.8L137-205.65l.45-3.2 15.85 9.1-15.6-15.4L123.75-234q14.15 12.3 32.4 3.45 9.1-4.45 15.4-11.35" fill="#353333" transform="translate(275.1 300.8)"/><path d="m59.95-211.15 4.75 27.05-9.3-13-20.2-37.4L47-216.9l11.75 18.05Q58-217.3 57.2-218.9q-.5-1.1 16 8.25 16.4 9.3 18.05 10.75 1.25 1.15-.55-12.7-1.6-12.45-2.15-14.1l34.85 72.65q.35-29-.85-32.65-.8-2.3 9.2 3.15l10.1 5.95-5.6-31.8 17.4 10.75-12.3-12.65q21.75 19.15 21.75 20.35 0 .4-10.15-4.15l-10.2-4.65 5.1 33.95-4.85-4q-5.1-3.95-6.05-3.4l-4.9 3.7-3.75 3-1.05 3.3-.2 9.15-.5 10.05q-.2.75-2.3-2.65l-2-3.6-4.3 17.1-2.8-11.05-5.1 8.45.35-37.25-8.95-18.8-1.25 1.05 1.95 9.45-10.55-5.05-29.35-28.85-2.5-1.2.2 5.25" fill="#282726" transform="translate(275.1 300.8)"/><path d="M153.15-156.1q.15-.6-3.55-10.8l-3.7-10.05 12.4 11.25q-.45-19.2.5-16.4.55 1.75 13.5 15.7l12.85 13.6q-.65 1.45-7.95 2.05l-7.15.3-3.65 8.65-8.1-1.15L138.85-113l-2.55-2.55-16.9 18.4-2.3-9.25 2.8-14.1q.3-1.75 2.5-3.5l2.2-1.4q5.45-.75 15-10.1 7.6-7.45 10.3-11.9 2.2-3.7 3.25-8.7M4.6-192.85q-6.35-5.25-7.5-5.75 21.05 5.9 22.1 7.3 1.05 1.4 5.1 13.35l-19.7-14.9" fill="#1c1a1a" transform="translate(275.1 300.8)"/><path d="m40.65 106.6 3.15.2-.05.1-.45.3q-1.35-.55-2.65-.6" fill="#26201b" transform="translate(275.1 300.8)"/><path d="M13.75 96.8q-3.3-1.1-10.9 1.75-7.15 2.7-8.65 4.85-1.1 1.55-1.85 10.75l-.5 8.9q-4-2.9-5.6-5.35-.95-1.4 1.15-7.3 1.9-5.45 1.5-5.4-.7.1-5.1 2.75l-4.25 2.65L-9.9 98.35l-1.75-1.15q-3.9-.5-8.7-7.15-4.95-6.9-5.85-7.15l-17.85-2.6q-16.05-2.3-17.4-3.5-1.1-1 .8-4.85 1.3-2.6 3.65-5.95l1.15-1.6 3.3 5.6q.95 1.5 5.15 2.2l63.75 23.55 3 1.1 7.55 2.8q16.7 6.25 16.9 7.15l-3.15-.2q1.3.05 2.65.6-1.9 1.45-7.4 8l-4.45-5.25-3.05-4.3-3.3-4.35q-6.55-2.85-11.35-4.5" fill="#26201b" transform="translate(275.1 300.8)"/><path d="M40.85 106.6q1.25.05 2.4.55l.15.1-7.15 7.5-1.4-1.15-9.7-13.35 1 .35 1.05.4q1.9-.4 6.8.75.35 0 8.4 4.9l-1.55-.05" transform="translate(275.1 300.8)"/><path d="M145.95-2.4q2.2-4.45 2.05-5.15l-1.85-6.2-2.35-7.4q-.6-1.9.9-2.05l1.65.2 6.2 20.25-4.3 4.35q-.45 1.5-2 1.3-.95-.15-2-.85-.35-.2 1.7-4.45" fill="#8a4f29" transform="translate(275.1 300.8)"/><path d="m39.4 240.6-4.75 13.35-5.25 1.25-15.3-5.95L-.1 245l-10.05-2.1q-6.4-3.7-12.4-9.25-11.95-11.15-9.75-20.6 1.7-.85 3.85-1.6 4.35-1.55 6.9-1.25l6.75 1.35q4.05.9 5 .8l7.05-.25 6.65.4 6.1 2.2q5.65 2.1 7.8 4.15 2.05 1.9 8.7 9.2l6.4 6.95 6.5 5.6" fill="#101010" transform="translate(275.1 300.8)"/><path d="M6.85 227.8q-7-3.75-7.85-4.6l-2.2-3.55q-1.85-3.05-2.95-3.7l-8.7-4.2 6.6.95 10.3-.5L13 217.75l-6.05 1q-6.1 1.45-4.9 2.6l6.4 4.9q5.55 4.15 5.55 4.7 0 .65-7.15-3.15M2.5 238.7l-7.3-7.7-7.45-8.25q-.2-.55-11.25-7-.55-.35-3.5-.8-2.95-.65-4.25-2.5 6.2-.55 8.45 0 3.7.9 13.05 9.75 4.8 4.5 9.7 9.7l8.35 7.4q7.3 6.3 8.7 7.05L2.5 238.7M1.1 98.1q2.65-1.3 10.2-.6 6.7.6 10.2 1.85 3.85 1.4 9.95 10.6l2.25 2.8 2.2 2.45q-2.55 2.8-5.75 14.45-1.6 5.85-2.7 11.15l-.5 5.65q-19-6.85-23.4-9.85-3.2-2.15-6.45-6.05-3.05-3.6-4.6-6.8-1.25-2.55-.4-10 .45-4.15 1.45-8.95.65-3.2 7.55-6.7" fill="#595959" transform="translate(275.1 300.8)"/><path d="M8.55 97.4q6.7-.45 13.65.95 2.2.45 6.6 6.8l3.95 6.3 3.15 3.75-2.85 6.9-3.6 8.35q-.6 1.15-1.6 8.7l-.9 7.3-14.6-5.45-6-3.3q-6.55-4.05-9.2-7.7-2.3-3.25 3.35-9.7l4.35-4.95q2.1-2.75 2.1-4.6 0-3.3-6.95-4.55l-4.65-.7q-2-.3-1.8-.7 3.4-6.65 15-7.4" fill="#232323" transform="translate(275.1 300.8)"/><path d="M91.05-51.25q-1.95.6-3.75-1.05-1.5-1.3-1.5-1.95l1.05-1.15 1.05-.95q3.5 5 3.15 5.1" fill="#b37c58" transform="translate(275.1 300.8)"/><path d="M-75.15 5.9q-.25-1.05 1.75-1.95l5.85 8.65 1.9 5.15-.85 3.05 2.35 3.85.35 11.6 1.2 1.7q1.15 1.75 1.15 2.3l.05 1.45q-.1 1-1 1.6-.9.6-1.85-.2l-.95-1.45-.2-1.55q-.1-1.05-.5-1.25l-3.45-1.7q-2.9-1.6-2.75-2.2l1.8.05 2.65.8q.85.05 1.05-1.9.15-1.7-.1-2.55-.15-.4-5.35-3.15l-5.7-3.2q-.5-.5-.15-1.55.4-1 1-.9l4.4 3.25q3.9 3.1 4.15 3.1 1.35 0 1.75-2.25.5-2.55-1.05-4l-5.7-3.85q-5.1-3.45-5.1-3.85 0-.55.65-1.1.65-.6 1.25-.55.3.05 3.5 3.05 3.05 2.95 3.65 2.8.7-.15.65-1.9-.1-1.45-.45-2.45l-3-4.4-2.95-4.5" fill="#f1916b" transform="translate(275.1 300.8)"/><path d="M77.55 102.15q2.15-1.4 4.85.3l-3 .6q-2.9 1.4-2.55 5.25l1 2.15q1.35 2.35 2.95 3.2-2.05-.7-3.7-2.25-3.25-3.15-1.15-7.5.55-1.05 1.6-1.75M69.5 103.5q-1 2.5 1.05 8.05 1.05 2.8 2.25 5.05L-52.55 70q-.6-.25-1.4-4Q-52.7 67.5 7 89.3q60 21.9 59.6 19.45-.35-2.35 1.25-4.05l1.65-1.2" fill="#ccc" transform="translate(275.1 300.8)"/><path d="M-74.45-24.95-72.7-26q1.95-.8 3.05.45 1.1 1.3 7.95 42.1l6.65 40.55-9.85-39.15q-9.85-39.8-9.55-42.9" fill="#fff" transform="translate(275.1 300.8)"/><path d="M200.4 21.35q.4 1.7.35 4.6-.05 3.3-.75 5.15-1.05 2.7-11 17.1l-4.9.6q-3.9-.45-23.3-6.45-24.35-7.55-33.3-13.6-2.5-2.05-5.65-4.2-6.35-4.25-9.55-4.55l-5.9-.4q-6.35-.7-8.65-1.95L94.2 15.1q-3.65-2.6-3.85-2.6-.35 0-2.3-2.7 3.75 0 5.35 1.4l3.85 3.25q2.8 2.15 4.6 2.35l8.7.1q7.4.5 11.2 3.8 4.4 3.75 29.25 8.7 24.55 4.85 27.25 3 3.5-2.45 6.65-9.2 3.7-7.85.1-10.95-4.05-3.55 5.55 2.1 9.55 5.6 9.85 7" fill="#f1916b" transform="translate(275.1 300.8)"/><path d="m162.45 88.85 1.5.35-1.4 5.65q-1.55 6.85-2.15 12.85-.55 6.15-7.65 14.6-4.55 5.45-8.75 8.85-2.3 1.85-45.9 19.2l-8.05 3.5q-8.15 3.65-8.6 4.25l-18.2 35.4-17.65 34.65-6.3 13.35-24.15-23.2-10.55-6.75 2.6-2.85q4.55 6.45 18.65 10.75 7.05 2.2 13.2 3.05l-11.5-13.7-7.2-3.25 7.7-1.3 9.35 10.3.15-5.85q.35-6 1.5-7.05l14.05-11.7q-15.95 5.4-22.45 1.15-2-1.35-2.85-3.5l-.45-1.85q8.35 3.8 21.15-21.05 3.85-7.45 8.7-18.8l5.05-11.7q1.95-3.65 47.6-21.95 44.6-17.9 44.25-18.8-.6-1.55-4.9-2.85-3.85-1.2-4.7-.9-2.8-.75-1.8-2.4.5-.8 1.55-1.5l10.3 2.45 7.9.6" fill="#26201b" transform="translate(275.1 300.8)"/><path d="m81.75-196.05 2.65 2.6-25.85 16.9-2.65-3.55q-2.75-4-3.3-6.1l.25-.6 28.9-9.25" fill="#1c1a1a" transform="translate(275.1 300.8)"/><path d="M-6.6-213.85q1.7-9.85 2.75-13.85-1.25 5.45-.65 29.95l.85 24.4-.85 1.4-11.25-20.5q-.55 3.8 2.2 23.45l2.9 18.85-3.95-1.35 9.05 35.05-11.55-15q-9.3 10.1-9.7 11.2l.3-11.45-3.5-16-11.6 10.9 3.15-25.3 1.15-19.6-18.2 4.05-12.8-.8 10.35-10.75q-1.15 5.5 10.15 5.05l7.95-.95 3.85-.9q-.1 33.3 1.25 35.85.9 1.65 3.55-1.55 1.3-1.6 2.45-3.55l1.05 4.9 1.55 16.5 4.1-7.7q3.65-8.2 1.55-10.4-2.1-2.2-4.8-14.4l-2.25-11.75 9 6.65q1.2-30.05 2.1-28.45l7.55 12.1.2-2.75q.15-3.6.15-7.75 0-4.05 1.95-15.55" fill="#282726" transform="translate(275.1 300.8)"/><path d="m3.35-173.05 3.5-.85 3.4 3.4Q6.7-169.1 4-165.05q-5.4 8.2-1.15 21.75.75 1.75 2.1 3.7 2.7 3.9 5.75 4.85-.5.3-1.4.35-1.7.05-3.45-1.25Q.2-139.8-3.7-156.2l-.1-.5-1.35-4.6q-.8-5.15 1.8-7.8 2.65-2.6 6.7-3.95" fill="#fff" transform="translate(275.1 300.8)"/><path d="M35.95-226.7q2.1-.35 3.8.45 1.55.7.95 2.6-.6 1.95-2.85 1.95l-6.6 1.05L27-219.6l-.5-.05q-.75-2.05.3-9.7.95-7 1.55-8.15l2.55-.05q1.95.55 2.7 1.1l5.1 7.2-2.75 2.55" fill="#282726" transform="translate(275.1 300.8)"/><path d="m23.6-169 .35.75L5.5-179.5q1.4.5 7.05 1.05 3.5.3 7.65 4.9l3.4 4.55" fill="#f1916b" transform="translate(275.1 300.8)"/><path d="M80.3-299.95 69.4-300q4.95-1.2 9-.65 23.9 3.3 1.9.7m-34.2 2.6q3.35-2.3 23.3-2.65-13.8 3.55-31.75 21.35-5.6 5.55-11.3 12.2l-5.1 6.1q-1.15 1.2 11.75-17.8l13.1-19.2" fill="#353333" transform="translate(275.1 300.8)"/><path d="m61.3-173.8 5.6-6.05q6.6-6.15 11.85-6.35L61.3-173.8" fill="#f1916b" transform="translate(275.1 300.8)"/><path d="M3.55-252.35q-23-1.25-23.9-8.7l3.9-3.5q4.8-4 9.35-6.65 14.6-8.5 21.2-.4 3.85 4.75 25 8.45 20.25 3.55 44.8 4.25 26.25.75 43.05-2.25 19.3-3.5 19.65-11.15l5.6 3.5q-14.3 8.95-37.2 15.45-45.75 13.05-88.6.75-11.35.9-22.85.25" fill="#fff" fill-opacity=".702" transform="translate(275.1 300.8)"/><path d="m47.65 108.65-.6.55-3.15-1.75.55-.35 2 .6 1.2.95" fill="#83715f" transform="translate(275.1 300.8)"/><path d="m45.45 131.9 6.2-.6-2.85 3.5q-3.5 3.3-6.7 2.2-6.1-2.1-11.25 10.55-2.2 5.5-5.15 17.7-.35-10.4 1.45-22.65 3.7-24.5 14.65-33.7l2.1-1.45 3.15 1.75q-4.5 4.3-7.3 8.25-4.55 6.5-2.85 10.1 1.95 4.15 8.55 4.35M46.45 107.7l1.7.5-.5.45-1.2-.95M-43.55 96q-14.2-12-15.55-15.2l4.65 1.15q4.8 1.3 5.65 1.85 7.1 6.45 14.05 11.85 13.7 10.65 17.35 8.3 5.1-3.25-1.75 1.4l-6.7 4.25q-.75 0 .85 2.05 1.5 2 2.9 1.7 1.3-.3 4.3 1.2l2.75 1.6-4.6.05q-4.75-.1-5.5-1l-1.25-3.65q-.7-2.8-1.8-3.35-2.35-1.2-15.35-12.2" fill="#83715f" transform="translate(275.1 300.8)"/><path d="m6.4 246.25-4.7-1.1-7.6-1.35q-3.2-.45-13.55-9.2l-11.4-10.15q-1.6-1.35-1.95-5.6-.35-4.1.7-4.95l4.15.25q2.7.7 4.45 1.6 1.3.6 11.75 9.65 10.65 9.15 12.7 11.55 1.75 2.05 13.55 8l11.4 5.5 5.1 3.35q-1.45 1.45-12.7-2.8l-11.9-4.75" fill="#7d7d7d" transform="translate(275.1 300.8)"/><path d="M-161.5 80.55q3-1.65 6.75.35 1.45.75 4.7 3.5 1.15 1 .55 10.9l-.4 5.3q-.35 3.35 0-.6.65-6.95-4.25-12-.95-1-5.3 1.5l-4.25 2.6-.15-2.6.7-2.75.9-2.65.75-3.55" fill="#b9b937" transform="translate(275.1 300.8)"/><path d="M-151.4 149.75q4.1 1.8 6 2.9 3.45 2.05 3.6 6.95.05 2.85-1.3 5.6l-1.25 2q-2.6 3.4-6.75 4.95-4.4 1.65-9 .6-1.95 10.9-5.9 15.75-5.25 6.5-15.6 5.5l-2.95-.8q-1.95-.7-3.1-.55-1.35.15-3 1.75l-3.1 2.65q-7.25 4.45-14.15 4.05-5.45-.35-10.15-4l-7.75-6.45q-16.3 3.65-25.85-4.3-9.3-7.75-8.9-23.7-4 1.3-7.55-1.25-3.15-2.25-4.55-6.35t-.05-7.25q1.5-3.55 5.9-4 1.85-.2 4.65 1.05 3.15 1.4 4.6 1.5.45-1.3-1.55-1.65l-3.15-.9q-1.1-11.5 5.45-17.65 6.8-6.4 17.7-2.65l.75.25q.95 3.45 1.8 9.25l1.5 9.6.05.75q-2.8-1.45-3.65-1.7-1.95-.65-4.85-.55.4 1.05 1.7 1.35l2.55.65 2.25.95q1.3.55 2.1 1.1l.8.65 1.2 1.5 1.1 1.55q3.35 3.9 12.05 6.4 8.6 2.55 16.45 2 16.2-1.1 29.85-12.5.45-2.35.9-7.45l.85-7.45 1.3-.4q9.9-2.75 16.05 3.65 6.2 6.45 2.95 16.65" fill="#98c6f6" transform="translate(275.1 300.8)"/><path d="M-241.65 81.4q.2-4.15 7.4-7.8 5.15-2.65 10.7-3.8 4.7-1 11.45-1.55 8.25-.65 16.25-.15l8.5.65q6.1.7 12.1 2.5 5 1.55 8.5 3.85 4.8 3.2 4.8 6.9l-.3.35-.3.35q-.35 3.6-5.8 6.2-3.15 1.5-9.9 3.25-11 2.8-23.6 2.8-12.6 0-23.6-2.8-4.6-1.2-7.45-2.35-4-1.65-6.05-3.35-2.8-2.3-2.7-5.05" fill="#80822b" transform="translate(275.1 300.8)"/><path d="M-233.4 90.3q13.85 6.25 35.85 5.25 21.6-1 33.45-8.05l-2.6 10.8-2.6 10.9-8.6 37.6q-9.4 9.25-28.35 7.7-17.95-1.5-27.3-10.4-.8-7.85-3.6-29.15-2.45-18.6-3.2-28.65 2.45 2 6.95 4" fill="#80822b" transform="translate(275.1 300.8)"/><path d="M-153.55 100.15q-.25 6.5-4.5 10.75-4 4-10.45 5.1l.4-3.4q.35-2.2.35-3.35 5.4-1.4 9-5.4 3.55-4 4.6-9.8.65 5.2.6 6.1" fill="#59581b" transform="translate(275.1 300.8)"/><path d="M-147.85 153.25q-1.45-2.5-3.8-2.9l3.45.6q4.25.95 5.2 2.45 1.1 1.7.65 7.15-.5 5.4-1.75 7.15-.95 1.3-7.75 3.85-6.8 2.5-7.05 2.8-.35.5-.9 3.65-.65 3.55-1.2 4.9-1.2 3-4.25 6.7-4 4.75-7.6 5.35l-7.65-.6-5.7.25-6.6 4.45q-5.3 2.95-9.85 2.75l-9.5-1.05q-4.05-.75-4.55-1.25l-3.6-3.5q-3.5-3.15-4.65-3.25-.9-.1-10.5.15-9.85-.3-13.4-3.05-5.2-4.1-8.5-9.65-4.3-7.15-4.35-15.25l-4.95-2.4q-5.3-3.4-7-8.45-1.7-5.15 1-7.55l4.9-2.65h5l.55-9.5q.2-2.25 2.4-5.55 2.35-3.55 4.35-3.7l-.85 2.25q-.9 2.75-1.2 5.3-1 8.15 4.35 11.1l-2.45-.25-4.8.4q-6.3 1.75-1.35 9.85 1.15 1.35 3.2 2.3 4.15 1.95 8.75.2l-.45 6.05q-.1 7.1 1.5 12.5 5.2 17.2 25.9 10.4l6.05 5.75q2.8 2.65 7.1 4.3 8.6 3.35 16-1.6l2.8-2.9q3.05-3.7 4.25-7.75 2.8 3.05 6.6 4.9 7.65 3.75 12.8-2.15 2-2.6 3.45-6.35 2.95-7.5.35-13.15 3 1.5 6.4 1.85 6.85.65 9.05-5.1 2.3-6.1.15-9.8" fill="#fff" transform="translate(275.1 300.8)"/><path d="M-199.55 167.85q8.5-13.05 20.75-9.55 3.75 1.1 7 3.45 7.55 5.55 1.6 1.55-15.3-3-12.3.55 1.85 2.2 1.9 5.6 0 1.75-.35 3-4-6.1-11.85-5.8-3.9.15-6.75 1.2M-163.8 124.1q4.1 1.65 4.35 6 .05.25-3.4-1.5-4.1-1.1-7.15 2.35l-.75-3.05q-.45-3.2 1.05-3.95l5.9.15" fill="#fff" transform="translate(275.1 300.8)"/><path d="m-239.95 95.05-.4-9.25q4.25 4.85 19.35 7.9l14.2 2.05q-32.85-1.15-22.65 29.1 5.1 15.1 16.75 30.45-5.8.65-14.65-5.05-4.4-2.85-7.7-5.85l-4.9-49.35" fill="#59581b" transform="translate(275.1 300.8)"/><path d="M-220.1 82.8q-5 .65-9.15 1.9-2.95.95-3.3.8-8.75-3.4-9.1-4.1-.25-.65.65-2.75 1.05-2.3 2.3-3.05 15-8.5 39.8-8.6 16.75-.05 28.05 5.6 4.05 2.05 6.4 4.35 2.05 2 1.65 2.9-.55 1.3-4.75 3.6l-4.15 2q-30.75-4.85-48.4-2.65" fill="#4e4b16" transform="translate(275.1 300.8)"/><path d="M-233.65 82.65q0-3.4 9.35-5.8 9.3-2.45 22.5-2.4 13.15 0 22.5 2.4 9.3 2.45 9.3 5.85 0 3.4-9.3 5.8-9.35 2.4-22.55 2.4-13.15 0-22.5-2.4-9.3-2.45-9.3-5.85" fill="#a05b2a" transform="translate(275.1 300.8)"/><path d="M-212.4 89.65q-8.4-.3-14.05-2.9-4.15-1.95-4.7-3.6l.05-1.05.25-.45q6.6 10.4 29.8 7.1 7.15-1 14.2-3.1 9.75-2.85 3.8-1.4-4.55 1.05-13.2.9-10.45-.2-13-2.9-2.4-2.6 1.75-3.05h6.35q.7 0 .55.45l-.6 1.1q-.85 1.85 2.3 2.7 4 1.15 9.4-.5 5.25-1.6 5.35-3.75.15-1.7-5.3-3.25l-5.5-1.15q8.5-.4 16.7 2.15l6.5 2.65q3.55 3.05.15 5.45-1.7 1.25-4.1 1.85-8.35 3.1-23.35 3.25l-13.35-.5" fill="#dd9168" transform="translate(275.1 300.8)"/><path d="M-179.3 96.1q-.55-1.3.45-1.15 1.05.15 6.5-1.8l5.25-1.95q-10.45 49.8-11.15 51.1-.5.9-3.35 3.5-2.8 2.65-1.45.95 1.75-2.15 4.15-23.1 2.4-20.85 1.35-23.55l-1.75-4" fill="#b9b937" transform="translate(275.1 300.8)"/><path d="M-149.25 149.25q5.9 1 7.8 5.6 1.7 4.15-.2 9.45-1.9 5.2-6.1 8.45-4.65 3.6-9.95 2.8-1.3 8.65-6.4 15.2l.25.3q-.85.2-.9 1.3l-.15.15-.2-.4q-3.35 2.3-5.45 3.3-3.4 1.55-7.05 1.75l-4-.45-4.1-.25q-1.25.2-3.8 1.9l-3.95 2.5q-8.55 4.1-17.8 2.3-9.7-1.85-14.6-9.4-16.9 2.6-26.75-4.8-9.9-7.5-10-23.2-5.55-2.5-8.4-5.15-4.4-4-4.1-9.35.2-3.85 3.15-6.25 3.2-2.6 8.3-2.15-2.1-12.05 5.15-18.25 7.25-6.2 19.15-2.7l-.25-1.8q.65.75.7 1.9l-.25 1.9q-11-2.2-17.2 2.9-6.35 5.2-5.25 16.35.2.2 3.15 1.5 2 .9 1.55 2.25-1.4-.15-4.7-1.4-2.9-1.15-4.75-1-4.4.45-5.8 3.75-1.25 2.9.15 6.75 1.4 3.8 4.4 6 3.35 2.4 7 1.4-.4 15.95 8.9 23.7 9.55 7.95 25.85 4.3l7.75 6.45q4.7 3.65 10.15 4 7.05.45 14.15-4.05l3.05-2.65q1.7-1.55 3.05-1.7l3.1.5 2.95.8q10.3 1 15.45-5.6 3.8-4.9 5.8-15.95 7 1.6 12.8-3.4 5.65-4.9 4.75-11.15-.4-2.9-3.65-4.5l-5.8-2.9q1.9-10.55-3.1-16.55-5.25-6.25-15-3.15v-2q10.55-2.95 16.45 3.3 5.65 5.95 4.7 17.4" fill="#61b3f0" transform="translate(275.1 300.8)"/><path d="M-239.45 141.2q1.65.55 4.45 1.95l.3 3.4-.25-.35q-.9-.9-2.35-1.55l-2.7-1.15-3-1.15q-1.65-.8-2.1-1.9 2.95-.1 5.65.75" fill="#61b3f0" transform="translate(275.1 300.8)"/><path d="M-202.95 96.45q-25.35-.15-36.95-9.3.75 10.1 3.05 28.1 2.6 20.8 3.35 28.6 9.35 8.9 27.3 10.4 19 1.55 28.4-7.7 2.6-10.85 6.65-28.95l6.5-29.1q-13.6 8.1-38.3 7.95m-6.25-27.9q-7.8.45-13.85 1.75-5.95 1.25-10.6 3.4-7.05 3.3-7.25 7.4-.2 4.2 5.45 7.25 3.5 1.85 10.05 3.55 11.05 2.8 23.6 2.85 12.6 0 23.65-2.85 15.5-4.05 15.5-10.45 0-3.7-4.55-6.45-2.95-1.75-8.25-3.35-4.7-1.45-10.1-2.15l-10.15-.9q-6.6-.4-13.5-.05m52.35 40.5q3.9-5.5 2.65-14.15-2.1 11.75-12.8 14.55 0 1.1-.55 3l-.5 3.05q7.5-1.25 11.2-6.45m.95-17.85q-2.25-.15-4.35.7-1.2.5-3.4 1.65l-3.05 14.55q4.8-2.45 7.7-6.6 3.15-4.65 3.1-10.3m.7-1.7q2.95 1 3.45 6.15.15 1.55-.1 7.35 3.75-7.2 1.8-14.85-2.25-8.65-10.9-7.4 0 2.35-1.1 5.5-1.15 3.4-1.25 5.3 2.8-1.25 4.15-1.75 2.25-.85 3.95-.3m-5.4-10.45q4-.65 7.2.85 2.85 1.3 4.6 3.9 3.45 5.15 2.95 11.35-.45 5.65-3.95 10.95-3.35 5.1-8.45 8.3-5.2 3.3-10.45 3.45-.05.85-.45 2.25-.95 1.2-.4 3.8l-.15.05q-1.05 3.75-2.15 9.25l-1.85 9.55-.05.4h.05q-.1 1.95-.35 3.4l-.65 1.2-.75 1.15q-3.4 4-12.65 6.95-9.35 3-17.05 2.5-8.85-.6-17.4-4.5-7.25-3.3-13.65-8.65l-.85-7.25q-.45-5.05-.8-7.25l-.5-.15v-2l.5.1-.5-2.2q-.45-2.75-.65-9.3-.15-5.6-1.05-8.75.85-1.25.2-3.3l-1.35-3.4.65.65q-1.75-13.95-2.05-23.3 6.75-11.5 36.8-12.45 15.4-.5 26.95 2.2 13.8 3.2 18.25 10.25" fill="#2f2e07" transform="translate(275.1 300.8)"/><path d="M-53.7 69.65q-1.8-1.3-3-5.55l-.9-3.95 84.35 27.4Q11.2 62.5-8.45 35.85q-39.25-53.3-59.7-61.45L62.6.05l19.35 93.5-1.1 3.4 29.2-3.45q29.5-3.2 30.85-1.95 1.4 1.25-31.9 14.25l-33.55 12.75L46.7 107.9q-1.05-.75-2.8-1.1L25.6 100q-77.15-28.75-79.3-30.35" fill="#eee" transform="translate(275.1 300.8)"/></g><g id="d" fill-rule="evenodd"><path d="M125.95 94.8q-.95 1-2.9 1.5l-3.15.85q-2.6 1.2-6.7 4-4.55 3.1-6.45 4.1l-.6 2.3h-.2q.55-1.1.8-3.25.2-1.95.75-2.75l-.1.35 3.35-2.6q2.3-2 3.75-2.8 7.25-4.1 11.45-1.7M112.5 129.9l-15.25.75q-8.05 1-13.5 2.55.95-.9 5.4-2.7l2-.45 2.1-.5q10.9-2.25 20.05-1.35 11 1.1 14.7 6.75-4.85-2.25-7.3-3.2-4.05-1.55-8.2-1.85" fill="#61b3f0" transform="translate(220.3 302.75)"/><path d="m-111.6 67.5-.95-1.7q-3.3 4.3-2.95 8.85.35 4.15 3.6 7.7 4.3 4.65 16.25 14.15 11.75 9.25 15.5 13.5.3.6.15 1.35l-.15 1.7q1.15 1.35 4.75 1.6l6.05.4q1.9 2.2 5.2 4.15-.3 1.05.1 3 .4 2 .15 3.05l-1.1-2.45q-1.1-.3-3.15-2.35-1.95-2-3.6-2.35l-6.95-.6q-3.75-.4-4.85-3.1l.05-1.7q.2-1.4-.05-2.05-.25-.75-3.55-3.15-3.05-2.25-4.3-2.8l-.25-.1q-1.25-.5-1.8-1.65l.1-.05-.15-.2q-1.85-2.05-5.95-5.5l-7.05-6.1-6.85-6.45q-4.05-4.25-4.6-7.4-.6-3.65 1.05-7.45.85-1.85 3.7-6.2l.85 2 .75 1.9" fill="#191918" transform="translate(220.3 302.75)"/><path d="M-54.8 96.25q2.7-.85 9.6-1.7 7.3 1.6 10.8 2.6 1.65.8 3.2 1.9l3 2.15q-.3-.1 0 .05 1.95 2.05 4.75 5.8l4.45 6.05-1.4 1.95q-1.55-1.4-6-7.95-3.75-5.55-7.2-7.25-4.9-2.35-13.3-1.8-8.45.55-11.7 3.5-4.55 4.25-4 14.4.5 9.55 4.35 13.6 4.1 4.25 13.65 8.7l15.3 6.45.2 1.65q0 .9-.6 1.5l.15-1.1-10.05-3.9q-6.05-2.35-9.75-4.2-10.55-5.4-14.55-13.4l-.5-2.85-.25-3.3-.05-1q-.1-4.3.9-9.8 1.05-5.55 2.35-7.35 1.85-3.2 6.65-4.7" transform="translate(220.3 302.75)"/><path d="m-76.45 231.1 7.9 6.4q4.75 3.3 8.95 4.75l3.55.65 3.55.35q4.65.85 12.35 4.3 8.65 3.9 11.95 4.8.8-.2-.2-.7l-1.5-.65q-2.9-1.55-10.75-4.95-6.95-3-10.5-5.15-3.95-2.4-8.55-7.1l-7.7-8.4q-9.7-10.1-19.85-11.15-.05 4.9 3.5 9.55 2.15 2.85 7.3 7.3m46.9-1.35-6.35-6.7q-3.75-4.15-6.5-5.75-2-1.25-5.7-2.8-4-1.7-5.75-1.95l-6.7.35-7.15.35q-2.8-.4-8.9-2.15-5.4-1-8.65 1.45 6.9.5 12.4 4.4.75.5 9.2 8.1l6.05 5.7 5.75 5.4q2.6 2.25 7.05 4.65l7.5 3.8q7.6 4.15 15.15 7.75l2.85-4.9q1.6-2.85 2.55-5.2-3.5-4.05-12.8-12.5m137.5-141.6q1.25.3 1.9 0-.8 1.05-1.1 2.25-.35 1.5-1.2 9.2-.8 6.75-1.4 7.95-1.6 5.9-4.75 11.25-2.95 4.95-6.8 8.75-.55.5-11.85 6.25-12.15 6.2-17.85 8.6-21.65 9.15-35.75 14.15l-17.1 33.65-17.15 32.9-.5.9.35-.25q-.4 1.55-1.45 3.15l-1.25.85q-.45 4.15-2.65 8.2l-4.1 6.65q-.9 1.5-3.3 7.5-2.45 5.45-4.5 6-2.2.6-7.75-1.55l-7.75-3.2-7.9-2.9q-4.75-1.7-7.6-2.15h-3.75q-4.15-.5-9.95-3.8-4.75-2.75-9.6-6.65-6.6-5.35-9.4-9.75-3.7-5.7-3.75-13.2 4.4-5.65 16.05-3.7l9.75 1.7 9.6-.35 5.4-3.9 5.4-3.9 2.7-10.45q2-5.45 5.75-7.4 3.6-20.8 5.6-37.05.6-.6.6-1.5l-.2-1.65.05.05.15-1.9q.95-15.3 8.2-27.35l1.8-2.55q2.25-3.25 5.7-6.6 1.25.25 2.8 1.15-10.5 6.55-14.35 23.75-2.25 10.15-4.6 33.4l-1.3 11.5q-.95 7.75-2.4 10.4-.55 1.05-2.55 2.5-1.95 1.5-2.55 2.6-1 2-1.5 6.75-.45 4.35-1.85 6.4l-4.4 3-4.05 3.4 4.8 1.8 4.65 1.9 4.05-4.2q2.8-2.7 4.05-4.2l-1.7-.35q-.8-.3-.65-1.35l2.15.05 2.25-.05.95-5.3q.65-3.2.7-5.5.65-.85 2.15-1.4l2.6-.95q-.65-.35-2.5-.55-1.45-.4-1.25-1.8l3.65.45 3.45.55q2.85-8.2 9.5-31.5 5.9-20.85 9.75-30.6.6-1.55 2.85-3.6l3.55-3.15 3.25-3.3q1.95-1.8 3.85-2.1-1.25 2.55-5.9 6.35-4.6 3.75-5.9 6.5-1.2 2.5-2.4 7.4l-2 8.1q-8.95 30.2-14.2 46.2l9.9-.45 7.65-1.9q-2.6 4.25-11.65 4.75l-7.4.3q-4.2.3-6.6 1.35l-1.2 5.7q-.7 3.55-1.5 5.45 1.85 1.6 4.05 4.15l3.75 4.65 3.9 4.55q2.25 2.7 2.85 4.85-4.05-2.55-8.45-7.7-4.8-6-7.4-8.8-1.6.95-4.75 4.05l-2.4 2q-2.05 1.75-2 2.4l1.3 1.1 1.75 1.6 11.05 10.4 10.2 9.5q1.65-2.05 2.85-6.85 1.35-5.65 2.2-7.35l2.5-3.95 2.6-4.15q12.85-24.1 22.9-44.5l4.3-9.4q3.2-6.6 5.15-8.15 1.6-1.25 5.95-2.65l7.2-2.4q21.4-8.25 38.8-15.9Q86.6 130 90.9 126.7q5.1-3.85 8.4-9.6 5.8-10.15 7.7-28.25l.95-.7M-77.45 88.55q6.5 5.25 12.8 7.6l2.9-.95q2.1-.5 2.85.6-.7.65-3.65 1.75-2.45.95-3.1 2.3 1.55.25 4.05 1.35l.15-.25q-.25 1.6-1.55 2.15l.35-.85-2.3-.4-2.05-.65q-2.15 1-5.35 5.3-3.05 3.95-5.1 4.5 1.5-3.9 4.35-7.45 2.15-2.75 5.75-6.05-7.1-2.5-13.95-8.95l-11.35-11.6-.7-.3q3.3.15 6.55 2.8l-1.45-.5 10.8 9.6" fill="#191918" transform="translate(220.3 302.75)"/><path d="M-220.15 191.9q.05-1.1.9-1.3l.15.25-1.05 1.05" fill="#61b3f0" transform="translate(220.3 302.75)"/><path d="M-220.15 192.35v-.45l.7-.7-.6 1.35-.1-.2M-220.3 192.05l.15-.15v.45l-.15-.3" transform="translate(220.3 302.75)"/><path d="M217.5 147.9q-.7-16-8.15-24.1-8.15-8.85-23.55-7.3-4.2-13.4-14.15-20.95-10.4-7.95-26-8.7l-5.7.15-5.1-.5q.4-1.25 1.85-1.55l2.2-.15q17.5-1.7 31.2 7.05 13.15 8.35 17.05 22.3 9.4-.4 14.85 1.7-5.4-23.1-15.1-36.25-12.6-16.95-32.85-18.4-15.4-1.1-32.45 5.95-.25-.85-.35-2v-.05q12.9-7.1 30.3-6.5 17.55.55 27.85 8.65 18.45 14.6 24.95 49.6 13 7.1 15.15 25.3 1.85 15.25-.3 23.3-.65 2.4-3.05 6.1-2 3.15-4.4 6.05-4.15 5-8.75 7.7-5 2.9-11.5 3.75-1.85 17.25-8.4 30.15-6.8 13.35-18.25 21.15-11.25 7.65-29.05 9.7-17.8 2.1-35.05-2.3-6.9 13.65-14.1 20.5-10.45 9.85-24.7 9.85-7.8.05-15.85-2.9-5.8-2.1-13.5-6.5-7.15 7.35-13.55 12.6-7.65 6.3-15.8 11-21.6 12.4-41.8 10.1-20.15-2.3-35.5-16.8-8.4-7.95-23.2-29.75-18.35-1.7-21.6-15.5-5.95 4.25-14.2 6.6-8.7 2.5-18.55 2.5-25.25 0-41.05-12.85-16.25-13.15-18-36.4-3.55-1.45-5.65-2.9-2.7-1.95-4-4.6l.6-1.35.4-.4q4.05 5.2 8.35 7.2l.45-8.4q.25-5.75 2.55-7.1-4.8 30.45 14.45 48.4 18.3 17.15 49.35 15.35 14.75-.8 24.6-8.45.25-.25.4-2.1.15-1.4 1.3-1.25 2.55 14.65 18.9 18.9.2-.45-.95-2.25-1.15-1.75-.4-2.8 1.8 1.25 3.4 3.75l2.65 4.35q11.6 18.35 22.35 28.05 15.75 14.1 34.35 15.45 13 .95 25.1-3.25 8.4-2.95 18.75-9.55 7.45-4.85 13.5-10.15l5.9-6.35q4.6-4.9 6.25-5.1 1.05-.1 3.25 1.05l2.8 1.65q5.5 2.7 9.65 4.1 5.6 1.95 10.6 2.3 12.75.95 22.1-5.45 7.2-4.95 13-14.8l2.75-6.05q1.9-4 3.3-4.4l5.2.45 5.6 1.25q20.3 3.1 36.9-1.45 16.3-4.5 25.85-15.45 6.65-7.6 10.75-19 3.5-9.9 5.45-23.85 9.4.45 17.2-7.05 3.25-3.1 5.9-6.6 3.35-4.4 4.25-7.6 1.55-5.55 1-16.85" fill="#61b3f0" transform="translate(220.3 302.75)"/><path d="M-124.5 10.8q-.95-1.45-5.25-5.75-3.45 4-.2 8.8 2.85 4.15 7.6 5.7.3-5.05-2.15-8.75m6.55 31.05q.5-.85-.05-2.25l-.95-2.15-4.75.15q-1.5-.6-4.05-2.15 1.3 2.3 4.15 3.95l5.65 2.45m-2.7-5.75q.6-.35.7-1.7.1-1.35-.35-2-3.4-1.15-6.85-4.3l-5.65-5.5q-.2 2.15.35 5.4l5.25 4.7q3.15 2.75 6.55 3.4m.35-6.4q.6-1.85-.05-4.25l-1.3-3.85q-3.7-.4-6.65-3.15l-4.85-4.95q-1.35 3.2.65 6.25l4.4 4.55 3.95 3.45q2.2 1.6 3.85 1.95m1.8-2.05-.15 8.1 1.7 2.35q.95 1.45 1 2.75.05.7-.45 2-.55 1.3-.55 2.05l.1 1.1q-2.1-2.8-5.7-3.05v-.05l.2-.05-.7-.65-3-1.95q-1.9-1.25-2.7-2.45l-.6-1.8q-.35-1.5-.75-2.25-.55-1.05-2.3-2.9-1.5-1.6-1.75-2.5-.3-1.05.05-3.35.45-2.55.3-3.75-.1-.85-.9-2.2l-.8-1.85q-.05-.85.7-2.35.85-1.75 1-2.7.2-1.05 0-2.8-.2-1.6 0-2.25.4-1.3 1.7-2.55 1.2-1.2 2.65-1.85l-.05-.45q.9.3 1.85 1.65l1.65 2 3.95 6.6q2.3 4.05 1.05 8.1 2.2 2.25 2.5 7.05" fill="#da6948" transform="translate(220.3 302.75)"/><path d="M16 219.65q-6.05-.8-12.45 1.7-4.05 1.6-10.25 5.55 1.05-1.6 1.45-3.15 5-3.7 9.95-5.2 6.9-2.1 11.3 1.1" fill="#61b3f0" transform="translate(220.3 302.75)"/><path d="M-40.55-167.8q-2.95-1.9-4.85-1.55-4.05.7-6.3 5.95-2.05 4.8-1.85 11.1.2 6.45 2.6 10.7 2.7 4.75 7.2 4.65 6-.15 8.75-9.85 2.75-9.75-1.3-16.8-1.35-2.3-4.25-4.2m7.6-13.35-2.1-5.15-1.95-5.3-8.3-3.1q-5-1.8-8.2-2.3 3.1 2 10.35 8.3 6.35 5.55 10.2 7.55m-7.75-46.25q-3-6-5.9-8.55-4.45-4-7.6 1.5 8.15 3.15 13.5 7.05m-8.1-12.45q2.25.25 4.7 3.75l3.4 5.7 3.75 5.65q1.9 3.15 2 5.8-1.15-.35-2.1-1.8l-1.6-2.25q-2.8-2.65-8.05-5.45l-8.85-4.65-1.8 4.25q-1.05 2.55-1.25 4.85l10.7.5q5.35.85 7.2 3.9-10.05-1.9-18.2-2.7.15.55-.25 2-.35 1.15.25 1.7 1.7-1 4-.9 2.55.1 3.05 1.9-2.55.85-7.4.65v15.9q13.45 3.45 23.6 8.75l3.2 7.7q2.1 4.65 2.2 7.8-3.3-1.65-7.3-4.55l-6.85-5.2-6.45-5.6q-4-3.2-7.75-3.5-.3 4.8 0 10.7.3 5.8 1.05 10.55 2.55-6.45 10-3 5.35 2.45 10.9 8.4 1.85 1.9 3.05 4.7l.95 10q.25 6.8-1.3 10.9-.3.85-1.95 3.3-1.2 1.8-1.1 3.15-5.05 4.6-10.1 3-.45-.35-.25-1.05.2-.7-.1-.95-3.9-1.7-6-7.05-2-4.9-1.85-11.05.15-6.25 2.35-10.9 2.4-5.1 6.5-6.45l-2.55-1.3q-1.55-.85-2.85-1.05l-4.95 4.2q-2.85 3.05-3.15 5.95-.05.7 1.25 4.1.95 2.6-.55 4-3.4-2.5-3.9-7.3-.45-4.9 2.55-7.9-3.8-6.25-9.8-19.55.85 25.3 5.4 40.45-1 .35-2.15-.25l-1.55-.55-1.45-2q-.95-1.2-1.95-1.45l-2.2-2.8q-1.1-1.65-.45-3.05.95.8 3.4 4.15 2 2.7 4 3.6-2.4-7.45-3.75-19.7-.8-7.35-1.65-21.45-.05-1.4-.6-5-.2-3.15 1.3-4.1 1.35.4 1.5 2l.15 2.7q2.1 8.5 9.8 20.6-.1-9.25-1.15-32.3.1-19.65 5.85-26.4 1.3-1.5 3.2-2.7 2.35-1.55 3.9-1.35" fill="#161514" transform="translate(220.3 302.75)"/><path d="m145.55 5.4-11.75.4q-8 .4-12.55.3l1.1.45-2.45-.3q-1.4-.2-2.05-.6L119.2 5q.9-.5 1.35-.6 6.75-1.35 13.2-1.35l6.2.2q3.55.5 5.6 2.15M37.55 45.55q.1-4.95-.65-15.9-.65-10.05-.35-15.35l.7.65 1.5 15.65q.8 9.15.85 16.3-.55.95-2.4 1.65-2.05.85-2.65 1.4.5 5.9.25 13.5-.2 6.95-.95 13.1l-1.35-.3.75-10.7q.2-6.6-.05-11.2l-.4-2.95q-.25-1.7.05-2.45.5-1.25 2.35-1.85 1.85-.6 2.35-1.55" fill="#6e3317" transform="translate(220.3 302.75)"/><path d="M106.05 88.5q.2-.45.75-.5l1.15.15-.95.7.05-.45-1 .1" transform="translate(220.3 302.75)"/><path d="m117.9 47.45 2.8.2-.8-.05q.1 3.1.7 8.75.6 5.7.65 8.75.1 1.1.35 2.05l.05.2.9 5.95q.55 3.6.05 5.65-.65 2.55-5.4 4.7-5.65 2.5-7.1 4.2-.8-.75-2.15.3L106.8 88q-.55.05-.75.5-3.3.45-8.75.2l-8.35-.4-.75-1.7q-.4-1.05-.95-1.45l1.6.2L99 87.1q6.35.9 9.1-.05.9-.3 2.45-1.8l2.6-2.25 4.4-2.25q2.3-1.2 2.7-2.45.3-1.1.1-3.6l-.45-4.2-1.1-11.75-.9-11.3" fill="#6e3317" transform="translate(220.3 302.75)"/><path d="M107.95 88.15q1.35-1.05 2.15-.3l-.25.3q-.65.3-1.9 0" transform="translate(220.3 302.75)"/><path d="M9.55-302.3q16.05-1.9 39.5 4.05 16.85 4.35 30.1 12.7 12.3 7.75 23.55 20.4 5.6 6.25 9.65 12.9 4.8 7.85 6.2 14.4 7.25 33.4 16.55 52.65l2.05 3.15q1.2 1.95.95 3.6-1.6 1.9-5.8 1.15l-6.35-1.5q.75 5.15 3.4 14.1 2.7 9.3 3.35 13.2-1.85 2-7.4 1.75-7.5-.3-8.8-.05-1.1 1.05-2.3 4.25-1.2 3.15-2.4 4.2l-3.45-.2-3.65-.8q-3.9 5-10.2 14.95-6.75 10.6-10.05 15.05-1.6.15-2.7-.8l-1.65-1.9q-2.85 2.75-6.1 6.85l-5.7 7.3-.95-.75-.95-.55 6.75-8.55q4-4.7 7.95-7.35.5.25 1.15 1.75.5 1.25 1.55 1.3l14.15-23.25 2.5-4q1.85-2.8 2.9-3.1 1.35-.4 3.65.35 2.4.8 3.45.65l1.6-4.55q.8-2.6 2.45-3.55 1.95-1.1 6.35-1 6.15.2 7.8 0-1-4.65-3.75-14.05-2.2-8.55-2.3-14.65 2.1-.25 5.75.8 4.15 1.2 6.05 1.25-5.5-11.75-10.15-27.8-2.7-9.35-7.4-27.85-3.3-12.4-13.65-24.75-8.1-9.6-20.1-18.8-11.2-8.55-25.75-13.6-15.2-5.2-32.25-5.95-23.4-1.05-44.45 5.9-16.35 5.3-33.5 16.35-4.85 3.1-13.8 10.5-9.25 7.55-14.05 10.75-17.45 11.45-36.6 8.8 3.9 6 10.5 11.45l6.7 4.55q5.35 3.7 5.4 5.25.05.8-.9 1.8l-1.45 1.55q-2 3.35-4.3 9.35-2.45 6.75-3.8 9.9-3.3 7.95-6.75 13.2-4.25 6.4-9.45 10.05l15-.6q6.85-1.1 13-3.45.5-.45.3-3.2-.2-2.45 1.05-2.5 1.3 1.1 1.15 3.8l-.45 4.3-.75 19.85q-.55 11.8-1.6 19.25 1.2.6 4.2-5.3 3.1-6.1 4.9-5.8 1.2.2 2.2 3.85.45 1.7 1.15 5.6 1.9 10.25 1.05 18.55 1.75-.65 3.85-4.15l3.55-5.3q2.15 1.55 4.5 5.1l3.95 5.7-.7-2.95q2.2 2.15 2.2 7.25-1.25-2.1-4.75-5.8-3.4-3.55-4.5-5.6l-5.3 7.45q-3.25 4.45-6.55 5.35-.55-1.5.1-4.1.9-3.6.95-4.65.2-4.05-.75-9.95l-1.65-9.3-5.6 6.3q-3.35 3.95-6.85 4.2-.35-1.9.25-4.9l1.1-5.25q1.95-12.4 3-35.1l-12.15 2.9q-7.85 1.7-12.8 1.5-2.7-.1-4.7-.75-2.65-.85-2.7-2.3-.05-1.15 2.45-2.7l3.25-2q5.35-5.1 11.6-19.45 7.75-17.75 10-21.35l-6.5-5.35-6.65-5.45q-4.55-4.05-6.1-5.95-3.1-3.85-3.35-7.9 7.95 1.15 16.3.25 8.85-.95 15.1-3.95 5-2.45 11.05-7.5l9.85-8.35q17.3-13.6 33.95-21.1 20-9.05 44.3-12" fill="#161514" transform="translate(220.3 302.75)"/><path d="m93.95-15.35 3.35 11.3q10.75-7.25 17.95-10 11.5-4.45 23.55-2.8L128.25-39.4q-6.2-12.4-12.05-21l-13.05 16.35Q95.4-34.35 90.9-27q1.05 4.9 3.05 11.65M31.85-55q0 .95-.35 1.35.4-.1 1.2.6.6.55.85.1-.4-.15-.75-1.15-.25-.9-.95-.9m-8.1-11.8L22-68.25l-1.95-1.25.5 4.4q.25 2.85.85 4.05.35-1.45 2.35-5.75M73-87.7q0-1.45-2.65-5.95l-3.4-5.55q-1.45 3.3-4.25 6.3l-5.9 5.55-5.2 4.15q-3.5 2.9-3.9 4.25-.4 1.3-.1 3.2l.45 3.2.3-2.2q.25-1.2 1.05-1.5 2.65 1.6 6.5 5.5 4.1 4.15 6.3 5.65.65-2.15 2.35-5.35l3.05-5.8 3.35-5.95Q73-86 73-87.7m-7.45-13.4.85-1.1.95.55.95.75-.05.05 2.85 4.95q1.65 2.9 2.55 5.15l1.4-.05q1.1-.6 2-.3 3.8 3.85 10 7.95l10.9 6.9 10.8 7.1q1.75 1.15 5.55 3.35 3.35 2.05 4.9 3.75 1.55 1.65 3.4 5.05l3.05 5.75 8.85 16.55q4.7 9.65 7.3 18.2.75.5 7.75 2.75 4.9 1.55 5.45 4.3.4 2-1.25 5.45-1.95 4-2.15 5.7 0 1.05 1.8 3.5 1.8 2.5 1.9 3.9.2 2-1.5 5.65l-2.85 5.85-4.2 9v-4.55l.15.25q.2-2.25 3.25-7.9 2.7-5.2 2.45-7.95-.1-1.25-1.85-3.6-1.75-2.3-1.85-3.8-.1-2.05 1.5-5.35 1.6-3.35 1.55-5.8l-8.05-3.55q-4.85-2.2-8.5-2.55-17-1.55-38.45 13.85L94.7.4q-1.2 1.1-.8 1.65l1.85.2-5.05-.55q.25-.55 2.25-2.55 2.1-2.1 2.65-3.2-2.1-5.15-4.05-11.45l-2.25-6.45q-1.2-3.9-.8-6.4.3-1.65 2.45-4.4l3.65-4.35 10.5-12.6 9.75-11.7q-5.95-4.75-19.65-13.75-13.2-8.7-19.5-13.9l-6 14.25q-3.6 7.85-7.15 13.05-2.75-1.3-6.65-5.9-3.9-4.5-6.2-5.55-2.15 6.75-2.35 14.5-.7.7-2.65 1.05l-3.1.65-1.35 10.7q-.8 6.55-2.7 9.2-1.55-1.1-1.1-4.9.6-4.7.1-6.25-.85-.95-3.65-2.55-2.55-1.45-3.4-2.85l.95-2.55q.6-1.6.7-2.85l-2.6-3.5q-1.7-2-3.1-2.2l-2 5.9q-1.3 3.4-3.4 4.55-1.2-1.55-1.35-5.6l-.35-6.55q-4.65 3.3-13.65 11.1-9.4 8.1-14 11.5l6 10.75q3.7 6.6 4.8 11.2-3.6-3.05-6.8-9.4l-5.35-10.85q-4.8 9.3-5.95 12.4-2.75 7.55-2.5 15.8l-1-.8-1.05-.35q-.05-5.1 1-10 .85-4.1 2.75-9.3l2.05-5.8q1.15-3.1 2.3-4.65 2-2.75 6.75-6.3L1.8-57l7.75-5.75q4.55-3.5 6.85-5.7 3-2.9 5.65-6.8l-1.1.2q1.25-1.15 2.8-2.1 1.9-1.2 3.25-1.35-3.1 2.95-5.95 7.65 6.3 2.15 10.45 7.45l-.9-8.5q-.5-5.55-1.45-8l1.45-.85.25.8 1.35 8.75.8 4.5.55 4.3-.25 2.3q-.2 1.5-.1 2.1.3 1.9 2.1 4.3 1.7 2.3 2.95 2.75l.4-4.5q.3-2.5.95-3.9l2.75-.45 2.65-.6q.45-3 .35-9.95-.1-6.95.3-9.95l8.95-7.3q5.4-4.35 8.2-8.05l.4-.5-.05-.1 1.5-2.4q.75-1.4.9-2.45" fill="#6e3317" transform="translate(220.3 302.75)"/><path d="m93.85-167.8.05.15 3.4 5.3q1.75 2.7 1.7 6.15-.1 2.95-1.05 5.4-3.2 8.7-11.45 15.85-8.15 7.05-18.25 10.15-3.4 6.05-4.65 11.5-1.75 7.7.95 13.45l1-1.25q-.15 1.05-.9 2.45l-1.5 2.4q-1.05-1.45-1.65-5.2-.65-4.15-1.3-5.5-1.6 5.8-6 9.85l-9.9 7.35L37.55-85l-8.75 5.4q-.45.3-1.3.7l-1.55.8q-2.3 1.2-4.85 3-5.45 2.85-9.8 4.6Q3-67.15-3.75-68.15q-6.85-1-15.4-5.7-5.1-2.85-14-9l-6.5-4.2q-4.15-2.65-6.8-4.7l-6.45-4.95q-3.6-2.95-4.75-5-1.3-2.35-2.4-6.45l-1.85-6.75-.4-1.15-2.7-10.7-1.5-5.5L-68-138l-1.55-7.75q-.9-4.7-1.85-7.05l-.7-1.25q1 .25 1.95 1.45l1.45 2-.35.15q2.25 6.7 6.45 24 3.7 15.25 6.7 22.9.75 1.9 5.4 5.45l6.45 4.65q7.2 5.45 12.3 8.8 6.3 4.25 13 7.75l9.05 4.75Q-4.4-69.9.8-70.5q6.75-.75 15.3-4.95 4.2-2.05 14.4-8.2l12.8-8.45 6.7-4.55q3.95-2.85 5.45-4.9 2.7-3.75 4.95-10.75l4.05-12.05 4.15-3.5 1.15.2 1.2.15q8.3-4.45 14.5-10.6 7.75-7.65 9.8-15.75.5-1.9.15-4.1l-.8-3.65q-3.45-5-5.35-6.85-3.7-3.6-7.8-3.6-1.7 0-4.6 2.6-2.5 2.2-3.85 4.35l-.3-1.3q-.25-.9.1-1.95l3.45-3.3 3.7-3q3.5.65 7.5 2.9l6.4 3.95" fill="#da6948" transform="translate(220.3 302.75)"/><path d="M-23.4-236.6q-1-1.15-2.1-1.6-2.05 1.7-2.6 6.3-.45 3.85.2 8.25.55-2.85 2.65-5.85l3.45-4.95-1.6-2.15m41.9 44.45-8.6 2.9.7 5.05L27.1-195q-3.05.85-8.6 2.85m-13.65 4.6-3.75.1-3.65.2 2.5 4.55 2.55 4.55 2.8-1.75q1.5-1.05 2.25-2.3l-1.4-2.65-1.3-2.7M44.1-159.4q.3-8.35-3.5-13.8-4.3-6.2-11.8-4.95-5.35.9-8.55 6.1-2.9 4.75-3.05 11.3-.2 6.5 2.4 11.5 2.8 5.5 7.85 6.9 7.45 2 12.15-3.65 4.2-5.05 4.5-13.4m11.35-12.3q.75 5 .9 14.45.15 11.35.45 14.9.4-.55 1.05-3.65.55-2.4 2-2.8 1.55 1.1 1.85 5.1.35 4.9.85 6.05l1.85-6.55q1.05-3.9 1.5-6.95-1.5-2.65-5.1-10.4-3.1-6.65-5.35-10.15M15.1-206.55l-10.6-9.7 3.05 11.95q1.55 6.95 2 13 3.55-.85 7.85-2.45l7.35-2.95q-3.3-4-9.65-9.85m15.05-26.55q2.65 2.85 4.65 7.45l3.1 8.4 2.55 9.35q1.5 6.05 2.85 9.2 1 2.3 3.45 6.2l3.65 6.25 10.1 20 9.8 19.85q1.05-9.3.35-20.95l-1.55-9.95q-1-5.7-.5-8.95 4 2.1 10.75 7.8 6.7 5.6 10.85 7.75L86.15-187l-4.4-15.75-1.95-4.75q-1.1-2.75-.75-4.7 2.95.9 7.55 4.55 4.5 3.55 7 4.2l-10.15-9.45q-5.7-5.65-9.1-10.75l-8.15-11.7q-5-6.4-9.75-9.9-.05 0-2.05-.9-1.15-.55-1.3-1.8 3.8 1 7.55 4.4l5.95 6.4 10.7 13.75q6.35 8.4 11.2 12.9l6.65 5.8q3.85 3.5 5.5 6.65-4.3.05-9.75-3.85-6.55-4.65-8.45-5.25 2.3 5.9 4.75 14.45l4 14.9 1.25 5.25q.7 3.15 1.4 4.75l-6.4-3.95q-4-2.25-7.5-2.9l.15-.1q-1.8-1.1-4.65-3.5l-4.5-3.6q1.4 8.8 1.5 13.7l.75-.7-.05 3.1-.15.8-.2.8q-.4 2 .15 12.4.4 7.8-2.3 10.75-1.05-.85-1.95-3.45-.95-2.8-1.75-3.65-.2 2.1-.95 4.8l-1.45 4.65L63.4-134q-.85 2.6-2.55 3.45-.8-1.3-.75-5.65 0-4.25-.95-5.5l-2.3 5.8q-1.45 3.4-4.1 4 2.15-14.1 1.35-31.05l.1-6.5q.1-3.95-.45-6.3-.65-2.8-3.75-7.7-3.6-5.75-4.3-7.45.5 1.4 1 5.15.45 3.3 1.35 5.25.5 1.1 3.05 4.1 2.05 2.35 2.35 4.7.3 2.5-.1 4.8-.55 3.1-2.3 3.95-1.2-1.45-.85-4.75.35-3.55-.5-5.05l-.55-1.05-1-1.25-4.5-3.75q-3.6-2.7-7.9-3-4.5-.35-8.65 2 7.65-1.65 12.7 2.85 4.4 4 5.7 11.45 1.25 7.15-.85 13.75-2.2 7-7.1 9.7h1.9q1.1.05 1.15.7-2.1 1.9-6.9 1.9l-8.25-.55q-4.7-4.55-6.5-7.15-3.25-4.75-3.65-10.4-.45-6.7 1.7-12.2 1.95-4.9 5.75-8.4-1.35.95-4 2.4l-4.1 2.35-3.7 3.05q-2.3 1.7-4.4 1.35.15-1.9 2-3.55l3.4-2.55q6.35-5.1 10.2-7.3 6.2-3.6 12.75-4.5-.75-1.35-2.5-3.15-1.85-1.85-3.6-2.9-6.4 3.4-9.45 5.4l-4.5 3.05q-2.55 1.85-3.95 3.65.5.45 2.05-.45 1.5-.9 2.35-.2-1.9 3.3-4.15 5.35-2.85 2.6-5.95 2.75.2-1.7 1.75-3.3 1.9-1.95 2.3-2.8-1.55-.35-3.45 1.4-2.15 1.95-3.65 2-5.35-7.4-6.75-12.5l8.45-1q-11.05-20.95-17.9-33.05-.6 0-2.15.9l-2.25.1q-.3-1.4 1.3-2.3 1.6-.85 1.4-1.4l-.6-.9q-.4-.55-.4-1.15-1.35.55-3.05 2.35-1.8 1.85-3 2.4-.65-2.25.95-4.05 1.4-1.55 3.75-2.05l-1.1-2.25q-.75-1.15-1.6-1.8-.7 1.95-2.55 5l-2.85 4.8q-.45 1.75-.85 2.6-.65 1.6-2.2 1.45-1.15-6.2-.6-12.6.75-8.4 4.65-8.3 2.1.05 5.25 4.3l4.2 6.5q3.8 5.85 7.9 13.25l6.95 13.05 3.75 6.85q2.15 3.8 4 5.95-.2-6.5-1.7-13.65-1.45-6.75-3.65-12.65L-.45-220q-1.05-2.3.25-3.65 8.8 6.8 20.55 18.55l4.95 4.8 4.85 4.95 4.85 5.3q2.9 3 4.95 4.5 1.05.75 3.15 1.65 2.05.9 2.25.7l-5.05-19.75q-2.95-10.95-5.75-18.7l-2.55-5.7q-1.55-3.35-1.85-5.75" fill="#161514" transform="translate(220.3 302.75)"/><path d="M-111.2 123.15q-.3-7.55 4.95-13.15 4.95-5.3 12.8-7.05.55 1.15 1.8 1.65-1.2-.05-3.45 1.25l-3.65 2.45q-7 4.8-9.4 9.45-.5.95-1.05 3.25-.65 1.9-2 2.15" fill="#61b3f0" transform="translate(220.3 302.75)"/><path d="M-65.55 104.35q.35 2.1-.2 4.95-.55 2.9-1.5 3.85-2.15-1.2-1.35-4.9.8-3.65 3.05-3.9" fill="#191918" transform="translate(220.3 302.75)"/><path d="M51-8.35q-.45 2.25-2.15 5.75-1.75 3.6-2.2 5.7-2.4-2.6-.4-6.65 1.8-3.7 4.75-4.8M36.05 1q-2-1.05-2-3 4.85-.1 5.4 3.7-1.75.15-3.4-.7M90-163.05q-.95.8-2.05.4l-2.35-.4q-2.9.5-4.95 4-1.9 3.25-1.8 6.8 0 .75.6 2.4.55 1.45.4 2.3-.3 2.25-2.4 3.55-1.95 1.2-4.65 1.2.05-1.6 2-2.55 2.1-1 2.35-2.2-1.85-2.6-1.3-6.65.5-3.75 2.8-6.95 2.35-3.3 5.25-4 3.3-.85 6.1 2.1" fill="#da6948" transform="translate(220.3 302.75)"/><path d="M-17.1-122.9q-.9 2.9.4 6.25 1.7 3.3 2 4.55-3.7.1-4.85-4.7-1.1-4.8 2.45-6.1" transform="translate(220.3 302.75)"/><path d="M20.65-103.85q1 3.25-2.3 4.35l-7.5 1.05-14.1 2.5-12.9 2.9q-.8-.85-1.25-1.85-.55-1.35-.1-2.2.85-.05 1.25.8l.8 1.25 13.7-3.75q8.7-2.05 15-2l4.4-.4q1.85-.6 3-2.65" fill="#c1624a" transform="translate(220.3 302.75)"/><path d="M-31.45-168.7q-3.05-.75-5.9-3.3-2.8-2.55-4.25-5.8 3.35.25 6.5 3.1t3.65 6" transform="translate(220.3 302.75)"/><path d="M23.2-21.25q-.65 3.65.25 7.65.95 4 3 6.5 1.25-.15 2.1-1.25l1.25-2.1q-1.8.4-3.55-.55-1.8-1.05-2.15-2.85l3.9-8.2q2.45-4.6 5.55-6.6-8.75-1.6-10.35 7.4m8.85 7.85q2.6-1.25 3.85-3.45.45-.85.75-2.85.3-1.8.9-2.55 1-1.25 3.5-2.3 2.35-1 3.25-2.45-2.7-3.15-6.6-1.5-2.05.85-5.85 4.2-.65 2.3-2.4 5.55L26.8-13.5q2.25 1.55 5.25.1m-13.7 3.3-4.5.05q-2.45.15-2.6 1.95l1.8 2.35q1.5 1.8 1.6 3.4L19.7-2q1.6 1 4.25 4.6 2.6 3.65 4.5 4.85l2.25.8q1.75.45 2.5.85 1.85 1 6.3 4.6 3.7 3 5.85 3.5l4.8.25q3.4-.2 5.3.1 3.45.55 8.75 3.75l8.45 5.35Q84.9 34 100.55 39.1q13.45 4.4 31.85 7.8 6.3-6.65 8.4-10.3 3.75-6.65 3.4-15.35-10.1-9.8-34.5-13.9l-21.35-2.9Q74.6 2.8 67.25 1.35q-7.1-16.5-12.8-25.95-1 .05-3.05-.9-1.95-.95-3.05-.8-.85.1-5.05 3.3l-4.05 3.1q-1.35 2.2-2.05 7.15-.8 6.15-1.3 7.7 2.35.25 4.3-.6l3.1-1.75-.2-2q-.3-1.15-.15-2.05 1.65-2.3 5.4-3.4 1.9 1.25 3 2.7 1.45 1.9 1.05 3.7l-3.3-3.5q-2.1-1.7-4.1.8 1.25 2.3-.05 4.45-1.15 1.9-3.7 3.05-2.5 1.15-4.7.9-2.4-.2-3-1.95-.55-1.6.3-3.85 1.05-2.9 1.05-4.6-.55-.05-1.85 1.1l-2.2 1.6q.9 3.15-2.95 4.55-3.85 1.45-4.85-2.2-1.7.4-2.8-.55l-1.9-1.45m-6-5.7q4.6.6 7.7-2.05-.85-2.8.9-5.45l2.8-4.35q-2.85.7-8.2 3.75-4.95 2.8-8.7 3.35.65 4.1 5.5 4.75m9.6-13.2q7.7-3.25 13.95-1 2.2-2.05 5.35-.8Q43-30.1 46-28l5-.2 4.8 1.55q3 4.5 6.7 12.9 4.75 10.8 6.1 13.4L90.55 1.7h.95l4.25.55 10.65 1.3 11.15 1.85 1 .25 3.8.9 12.9 5.75q7 3.55 10.6 7.95l.3 2.55q.15 1.6.6 2.25v4.55q-2.85 5.65-6.6 11.25l-3.3 5.05q-2.15 2.9-3.8 3.35-2.85.8-6.6-.15l-5.75-1.45-2.8-.2-.05-.2q-14.3-3.2-25.6-7.75Q81.1 35 70.65 28.35l-6.9-4.6q-4.15-2.6-7.3-3.5l-6.1-.65-6.35-.7q-1.05-.3-2.25-1.15l-2.15-1.6-2.35-1.3v.1l-.7-.65v-.1q-1.75-1.6-4.6-2.55-3.55-1.25-5.15-2.2-1.2-.75-5.3-5.85-3-3.85-6.55-3.6l.1.65-2.85-4.7Q10.5-6.5 8.55-8.1q.7-3.45 6.4-3.75 5.6-.25 7.45 2.4l-.95-3.25q-.65-2-.75-3.5-4.7 3.6-10.6 2.1-6.25-1.65-5.95-8.15.95-1 2.6-1.1l2.8-.25q4.15-1.1 12.4-5.4" fill="#da6948" transform="translate(220.3 302.75)"/><path d="M16 114.05q-4.65-6.15-2.7-11.15-26.8-8.9-62.5-21.5l-62-22q1.1 5.4 4.05 9.45L16 114.05m8.4-12.85q-2.65.6-3.55 2.8-.85 1.95-.05 4.25.8 2.3 2.65 3.45 2.05 1.25 4.35.3 4.4-1.7 2.8-6.8-1.6-5.05-6.2-4m1.45-22.9h-.1l.1.55.85 7.4q.5 4.35 1.1 7.2 24.35-5.8 38.8-8.1l-20.15-3.8-20.6-3.25M-132.8-31.05V-30q.6 6.3 3.05 18.2l1.55 9.1q.95 5.3 2.15 8.45l.05.15-1.65-2q-.95-1.35-1.85-1.65-1.05-5.8-3.9-17.85-2.2-10.8-1.75-18.15l28.7 4.3 28.65 5.15 56.65 10.45v-1.25l1.05.35 1 .8v.45L8.55-8.1q6.05.75 6.5 8.75l5.3 36.9q3 21.35 4.75 37.35l.75.2 6.65 1.15v-.05l1.3.2 20 3.5 33.45 5.25q.7.5 1.5 2.25t.8 2.7q-1.15 3.1-2.7 4.35l-49.95 17.9-8.6 3.55q-5.45 2.25-8.25 2.2-3-.05-7.7-2.1-5.15-2.45-7.5-3.3l-12.55-4.4-5.95-2.1-6.45-2.55-6.55-2.4q-3-1-4.8-2.25l-2.95-1.85-10.2-2.75-.15.05q-7.15-2.3-21.3-7.6-14.05-5.25-20.75-7.4-3.3-1.7-6.55-2.8l-10.25-3.45q-5.7-2.25-8-5.7l-.75-1.9-.85-2 .3-.5q-.05-1.7-1.6-3.7l-2.45-3.4q-.8-1.75-1.4-5.5-.6-4.1-1.3-5.95l-.45.1q-.05-.55-.9-.95l-1.55-.75q3.6.25 5.7 3.05.2 1.45 1.7 5.35 1.3 3.45 1.25 5.65 53.05 16.75 127.5 44.55l2.9-2.35q1.75-1.3 3.55-1.7-2.45 2.85-3.05 3.8-1.65 2.6-1.7 5.3 0 3.8 2.35 6.55 2.55 2.95 5.75 1.25l-2.6-2.1q-1.3-1.3-1.8-3-1-3.6.65-6.4 1.5-2.5 4.4-3.4 2.85-.9 5.2.3 2.65 1.35 3.25 4.8.35 1.8 0 3.6l-1 3.15 48.25-17.2 3.25-1q1.95-.75 2.5-2.05-2.4-4.25-14.55-3.35-8.9.6-23.35 4-16.95 4-22.15 4.75Q24.3 89 18.7 45.85q-4-30.95-7.8-49.55Q3.85-6.25-6.15-8.25l-17.7-3.2-54.4-10-54.55-9.6" fill="#ccc" transform="translate(220.3 302.75)"/></g></defs></svg>